<svg width="400" height="300" viewBox="0 0 400 300" xmlns="http://www.w3.org/2000/svg">
  <defs>
    <linearGradient id="marbleGradient" x1="0%" y1="0%" x2="100%" y2="100%">
      <stop offset="0%" style="stop-color:#2D2D2D;stop-opacity:1" />
      <stop offset="30%" style="stop-color:#1A1A1A;stop-opacity:1" />
      <stop offset="70%" style="stop-color:#333333;stop-opacity:1" />
      <stop offset="100%" style="stop-color:#0B0B0B;stop-opacity:1" />
    </linearGradient>
    <pattern id="scratches" patternUnits="userSpaceOnUse" width="20" height="20">
      <rect width="20" height="20" fill="url(#marbleGradient)"/>
      <path d="M2,2 L18,18 M5,18 L18,5 M10,2 L18,10" stroke="#666" stroke-width="0.5" opacity="0.3"/>
    </pattern>
  </defs>
  
  <!-- Background -->
  <rect width="400" height="300" fill="url(#scratches)"/>
  
  <!-- Stains and damage -->
  <ellipse cx="120" cy="80" rx="25" ry="15" fill="#444" opacity="0.6"/>
  <ellipse cx="280" cy="150" rx="30" ry="20" fill="#555" opacity="0.5"/>
  <ellipse cx="200" cy="220" rx="20" ry="12" fill="#333" opacity="0.7"/>
  
  <!-- Scratches -->
  <path d="M50,50 L150,60" stroke="#666" stroke-width="2" opacity="0.4"/>
  <path d="M250,100 L350,110" stroke="#555" stroke-width="1.5" opacity="0.5"/>
  <path d="M80,200 L180,190" stroke="#777" stroke-width="1" opacity="0.3"/>
  
  <!-- Dull areas -->
  <rect x="0" y="0" width="400" height="300" fill="#222" opacity="0.2"/>
  
  <!-- Text overlay -->
  <rect x="10" y="250" width="120" height="40" fill="rgba(0,0,0,0.8)" rx="4"/>
  <text x="70" y="265" text-anchor="middle" fill="#E5E7EB" font-family="Inter, sans-serif" font-size="12" font-weight="500">ANTES</text>
  <text x="70" y="280" text-anchor="middle" fill="#9CA3AF" font-family="Inter, sans-serif" font-size="10">Mármore danificado</text>
</svg>