<?xml version="1.0" standalone="no"?>
<!DOCTYPE svg PUBLIC "-//W3C//DTD SVG 20010904//EN"
 "http://www.w3.org/TR/2001/REC-SVG-20010904/DTD/svg10.dtd">
<svg version="1.0" xmlns="http://www.w3.org/2000/svg"
 width="828.000000pt" height="828.000000pt" viewBox="0 0 828.000000 828.000000"
 preserveAspectRatio="xMidYMid meet">

<g transform="translate(0.000000,828.000000) scale(0.100000,-0.100000)"
fill="#000000" stroke="none">
<path d="M0 8013 c0 -146 3 -263 6 -260 4 4 12 17 18 29 12 23 14 23 166 19
85 -1 159 -7 165 -12 5 -5 28 -9 51 -9 24 0 46 -4 49 -10 3 -5 14 -10 23 -10
22 0 87 -47 107 -76 14 -21 14 -30 3 -62 -29 -87 -75 -112 -194 -107 -96 5
-268 31 -295 45 -9 5 -19 6 -23 3 -3 -3 -6 -2 -6 4 0 5 -11 15 -25 21 -14 7
-28 25 -34 44 -7 24 -9 -22 -10 -163 l-1 -196 333 -32 c182 -18 386 -39 452
-47 1070 -128 1435 -177 1435 -195 0 -5 -6 -9 -13 -9 -7 0 -46 -17 -87 -39
-90 -47 -95 -63 -28 -107 113 -76 431 -124 825 -124 197 0 282 10 441 51 92
24 120 28 146 20 17 -6 175 -35 351 -66 362 -64 421 -75 955 -179 212 -41 446
-87 520 -101 74 -14 189 -39 255 -55 66 -17 128 -30 138 -30 27 0 20 -24 -12
-43 -36 -21 -41 -21 -41 -2 0 19 -51 20 -69 3 -16 -17 -359 -13 -376 4 -2 2
-6 16 -9 31 -7 39 -12 44 -48 49 -163 22 -887 150 -1158 205 -124 25 -241 45
-260 44 -19 0 -66 6 -105 14 -90 19 -124 11 -139 -34 -6 -19 -18 -37 -26 -41
-8 -4 -25 -12 -37 -19 -18 -9 -23 -8 -23 1 0 9 -3 8 -10 -2 -7 -11 -10 -2 -10
32 0 26 -3 49 -7 51 -5 3 -73 -2 -153 -10 -109 -11 -216 -13 -430 -9 -366 7
-542 28 -735 89 -55 17 -105 31 -112 30 -6 0 -9 7 -6 16 3 10 -3 7 -16 -8 -12
-13 -21 -18 -21 -11 0 8 -23 11 -77 10 -136 -3 -139 -3 -151 28 -6 15 -15 58
-21 96 -6 38 -14 73 -18 77 -4 4 -53 12 -108 18 -55 6 -176 19 -270 30 -93 11
-237 27 -320 35 -82 9 -215 22 -295 30 -227 23 -415 35 -542 34 l-118 -1 0
-96 0 -96 42 -3 c23 -1 44 -5 47 -8 9 -9 -29 -74 -44 -74 -8 0 -15 5 -15 10 0
6 -7 10 -16 10 -12 0 -14 -10 -12 -50 2 -28 7 -50 12 -49 5 0 12 -5 16 -11 8
-13 74 -21 178 -22 70 -1 76 -8 70 -84 l-3 -38 -50 2 c-90 5 -150 13 -159 22
-4 4 -11 23 -15 42 -5 24 -13 34 -29 36 l-22 3 0 -765 c0 -421 4 -766 8 -766
5 0 12 3 16 7 11 11 51 11 58 -1 6 -8 11 -7 17 3 6 9 14 10 27 4 19 -10 144
-9 197 1 29 6 38 -10 10 -18 -10 -2 -72 -7 -138 -11 -66 -3 -137 -8 -157 -11
l-38 -6 0 -318 0 -318 38 18 c20 9 75 28 122 40 72 20 109 24 245 24 270 1
378 -40 480 -179 53 -72 106 -118 170 -146 25 -11 45 -23 44 -27 0 -9 -111
-62 -129 -62 -9 0 -10 3 -1 14 9 11 8 15 -4 20 -9 3 -13 2 -10 -4 3 -6 -1 -10
-9 -10 -9 0 -16 -7 -16 -15 0 -8 -7 -15 -16 -15 -12 0 -14 5 -8 18 4 9 7 27 7
40 -1 12 3 22 8 22 5 0 9 12 9 26 0 26 -24 67 -67 114 -13 14 -23 30 -23 37 0
7 -4 13 -10 13 -5 0 -23 14 -38 30 -16 17 -34 30 -39 30 -6 0 -16 6 -22 14 -7
8 -27 17 -46 20 -19 4 -35 11 -35 16 0 4 -9 6 -19 3 -11 -3 -52 1 -92 7 -54 9
-74 10 -77 1 -2 -6 -10 -11 -18 -11 -8 0 -11 6 -8 15 4 8 1 15 -5 15 -6 0 -11
-7 -11 -15 0 -21 -18 -19 -23 3 -3 10 -5 5 -7 -13 -1 -29 -2 -29 -12 -7 -6 12
-16 22 -22 22 -6 0 -21 3 -33 6 -17 5 -23 2 -23 -10 0 -9 -4 -16 -10 -16 -5 0
-10 5 -10 10 0 6 -7 10 -15 10 -8 0 -15 -4 -15 -10 0 -5 -7 -7 -15 -4 -8 4
-15 1 -15 -5 0 -7 -9 -9 -26 -5 -20 5 -26 2 -31 -14 -5 -20 -18 -23 -39 -10
-13 9 -29 5 -81 -16 l-43 -18 0 -824 c0 -508 4 -824 9 -824 6 0 13 5 16 10 4
6 11 8 16 5 5 -4 9 -1 9 4 0 6 6 11 14 11 8 0 17 6 20 13 5 10 7 10 12 0 3 -7
14 -13 24 -13 12 0 20 -11 26 -37 4 -21 8 -45 7 -53 -1 -7 5 -26 13 -42 8 -15
14 -36 14 -48 0 -11 5 -20 11 -20 5 0 7 -6 3 -12 -13 -21 1 -155 18 -176 15
-17 1 -28 -44 -36 l-37 -7 -6 43 c-6 38 -22 75 -81 186 -22 41 -38 36 -42 -11
-3 -29 0 -37 13 -37 11 0 15 5 11 15 -3 8 -1 15 4 15 6 0 10 -7 10 -15 0 -8 5
-15 10 -15 16 0 12 -22 -7 -36 -16 -12 -16 -13 9 -14 22 0 26 -4 21 -18 -3 -9
-2 -13 2 -9 11 10 36 -82 29 -106 -5 -14 -9 -16 -20 -6 -8 6 -18 9 -21 5 -4
-4 -1 -11 7 -16 11 -7 3 -10 -27 -10 -24 0 -43 -5 -43 -11 0 -6 18 -10 42 -9
59 2 65 1 48 -10 -10 -6 -11 -10 -2 -10 6 0 12 -5 12 -11 0 -6 -7 -8 -16 -5
-9 3 -12 2 -9 -4 6 -9 -50 -27 -67 -22 -5 1 -8 -520 -8 -1158 l0 -1160 461 0
462 0 24 26 c20 22 23 32 17 69 -5 37 -3 44 14 49 11 4 23 13 26 21 3 8 15 15
27 15 15 0 19 4 15 16 -4 11 -1 14 12 12 10 -2 16 -11 14 -22 -3 -14 0 -16 16
-7 13 7 22 7 30 -1 9 -9 10 -6 7 10 -6 32 33 53 110 59 62 6 125 -9 125 -28 0
-4 12 -10 28 -12 l27 -4 -27 -2 c-32 -1 -40 -31 -8 -31 11 0 20 5 20 10 0 6 6
10 14 10 10 0 14 -10 12 -35 -2 -19 1 -35 5 -35 5 0 4 -11 -3 -24 -8 -20 -7
-28 6 -41 9 -9 16 -25 16 -36 0 -19 16 -19 795 -19 793 0 795 0 783 20 -7 11
-20 20 -29 20 -12 0 -16 6 -12 20 4 14 0 20 -11 20 -9 0 -16 5 -16 11 0 6 17
9 43 7 38 -3 42 -6 45 -31 3 -23 6 -26 18 -16 8 6 14 8 15 3 1 -5 2 -18 3 -29
1 -19 9 -20 173 -23 160 -2 172 -1 177 16 4 11 23 24 45 31 21 6 44 18 51 26
7 8 21 15 31 15 17 0 24 11 20 32 0 4 9 10 22 12 12 3 34 7 50 11 20 4 27 2
27 -10 0 -8 -7 -15 -15 -15 -8 0 -15 -7 -15 -16 0 -12 6 -15 24 -10 30 7 45
-12 23 -29 -25 -18 -21 -54 6 -60 12 -3 525 -4 1140 -3 l1117 3 -74 50 c-42
28 -76 53 -76 58 0 4 -5 7 -11 7 -6 0 -52 31 -102 69 -105 78 -131 93 -142 83
-5 -4 -5 -1 -1 6 5 7 -1 15 -16 21 -13 5 -41 26 -63 46 -22 20 -57 46 -77 56
-21 11 -38 24 -38 29 0 20 -46 33 -69 20 -16 -8 -26 -8 -35 -1 -14 12 -66 11
-66 -1 0 -3 -13 -6 -30 -6 -17 1 -30 6 -30 14 0 7 -3 21 -6 31 -4 11 -3 14 3
6 11 -15 63 -5 63 13 0 7 -5 16 -10 19 -6 4 -9 14 -8 23 4 20 -53 23 -60 3 -3
-8 0 -11 6 -7 5 3 12 -1 16 -9 4 -10 -1 -15 -15 -15 -15 0 -19 -5 -15 -16 17
-44 18 -64 3 -64 -9 0 -18 8 -21 18 -4 10 -21 35 -39 54 -28 31 -37 35 -69 31
-41 -6 -73 -42 -65 -73 3 -13 0 -16 -13 -13 -10 3 -21 15 -24 28 -5 19 -12 23
-38 21 -22 0 -32 3 -30 12 3 18 -2 15 -44 -22 -33 -30 -41 -32 -66 -24 -35 12
-49 3 -23 -16 34 -24 12 -43 -51 -45 -63 -1 -94 5 -94 20 0 5 10 9 23 10 12 0
38 6 57 13 l35 13 -50 7 c-27 4 -57 10 -65 13 -17 7 130 30 192 31 22 1 46 6
51 11 6 6 18 11 27 11 8 0 30 9 49 21 l33 20 -20 20 c-25 23 -42 25 -42 4 0
-8 -4 -15 -10 -15 -19 0 -10 27 13 37 31 14 126 -4 147 -28 12 -12 20 -15 33
-8 23 14 22 33 -3 26 -27 -7 -42 13 -26 36 7 9 18 17 25 17 24 0 9 19 -33 44
-49 28 -71 35 -40 11 19 -14 18 -14 -3 -15 -13 0 -23 -4 -23 -9 0 -12 55 -22
77 -14 14 5 13 1 -4 -15 -17 -17 -27 -20 -45 -13 -32 12 -52 37 -44 56 7 19
-8 19 -24 0 -18 -22 -37 -18 -45 8 -4 13 -8 17 -12 10 -6 -15 -83 -18 -83 -3
0 6 8 10 18 10 10 0 27 6 37 14 10 7 27 11 37 8 22 -5 23 11 2 32 -19 19 -16
19 -133 1 -87 -13 -95 -13 -107 3 -13 16 -13 16 -14 0 0 -10 -4 -18 -9 -18 -5
0 -12 -15 -15 -33 -7 -37 -47 -88 -54 -69 -2 7 -8 12 -13 12 -6 0 -8 -4 -5 -9
5 -8 -54 -23 -63 -15 -7 6 25 31 49 37 14 3 33 19 43 35 19 34 70 79 116 104
46 25 38 38 -22 38 -31 0 -61 6 -73 15 -25 19 -34 19 -34 0 0 -8 5 -15 11 -15
6 0 9 -6 6 -12 -2 -7 -11 -12 -21 -10 -19 3 -22 -14 -4 -22 7 -2 -11 -3 -41 0
-47 3 -52 2 -41 -11 10 -12 9 -15 -4 -15 -29 0 -31 1 -28 17 2 9 -1 12 -8 8
-6 -4 -9 -13 -6 -20 8 -21 -15 -33 -64 -36 -25 -1 -54 -7 -65 -13 -11 -6 -47
-20 -80 -30 -33 -10 -76 -24 -95 -32 -19 -7 -51 -16 -70 -19 -19 -4 -53 -13
-76 -21 -22 -9 -62 -14 -90 -12 -37 2 -53 -1 -64 -14 -11 -13 -49 -21 -155
-33 -77 -9 -142 -20 -145 -24 -6 -10 -63 -22 -102 -23 -16 -1 -28 -5 -28 -9 0
-5 -6 -9 -14 -9 -8 0 -16 -5 -18 -10 -2 -6 -35 -13 -73 -17 -39 -3 -74 -9 -80
-13 -5 -4 -37 -10 -70 -14 -98 -10 -177 -27 -221 -47 -22 -11 -49 -19 -60 -19
-10 0 -32 -7 -47 -15 -23 -12 -31 -12 -42 -2 -7 6 -22 19 -34 27 -11 8 -21 19
-21 24 0 17 -50 55 -65 50 -8 -4 -15 -1 -15 5 0 6 -11 11 -25 11 -14 0 -25 5
-25 11 0 6 7 9 15 6 17 -7 30 9 15 18 -5 3 -10 14 -10 24 0 10 -11 24 -25 31
-14 7 -23 15 -20 18 2 3 -7 18 -20 34 -14 16 -25 35 -25 42 0 7 -11 25 -24 39
-20 21 -30 25 -62 20 -26 -3 -46 1 -59 10 -20 15 -19 16 8 26 16 6 37 11 48
11 26 0 24 15 -8 51 -50 55 -50 79 -2 79 16 0 29 4 29 9 0 12 -78 12 -86 0
-10 -17 -22 -9 -29 21 -4 16 -11 30 -16 30 -5 0 -8 3 -7 8 4 11 -64 92 -78 92
-6 0 -15 12 -19 28 -3 15 -13 37 -21 49 l-14 23 -50 -20 c-28 -11 -66 -20 -85
-20 -19 0 -37 -5 -40 -10 -4 -7 -13 -6 -26 1 -11 6 -28 7 -37 3 -9 -4 -28 -8
-42 -8 -16 -1 -24 -6 -22 -15 7 -34 -9 -51 -50 -51 -35 0 -39 -2 -28 -15 7 -9
11 -17 9 -18 -7 -5 -114 -50 -224 -94 -60 -25 -124 -51 -140 -58 -17 -8 -57
-22 -88 -32 -31 -9 -57 -21 -57 -26 0 -5 -13 -6 -29 -2 -19 4 -41 0 -60 -9
-21 -11 -58 -16 -120 -16 -49 0 -92 -4 -95 -9 -3 -4 -29 -11 -59 -14 -29 -4
-71 -13 -93 -21 l-39 -15 45 -2 c25 -1 61 -2 80 0 19 1 44 -5 55 -13 19 -14
19 -15 -8 -25 -15 -6 -39 -16 -54 -23 -16 -6 -36 -10 -47 -9 -10 2 -15 -2 -12
-8 7 -11 -64 -34 -104 -33 -14 1 -36 -4 -50 -9 -29 -11 -105 14 -95 31 4 6 8
23 11 38 2 15 6 37 9 48 3 13 -1 24 -9 27 -22 9 1 89 23 82 9 -2 23 0 31 5 13
9 13 12 -3 25 -11 7 -25 11 -33 8 -8 -3 -14 0 -14 5 0 17 30 21 110 17 41 -2
93 1 115 7 89 22 115 32 104 39 -7 4 -9 17 -5 32 3 14 3 33 0 41 -5 14 -9 14
-22 4 -10 -9 -43 -12 -109 -9 -82 3 -93 1 -93 -14 0 -9 -3 -15 -7 -13 -5 2
-25 12 -46 21 -24 11 -37 24 -37 37 0 10 -4 21 -8 24 -5 3 -6 -14 -2 -37 5
-37 4 -43 -12 -43 -15 0 -17 6 -11 40 4 26 3 37 -4 33 -13 -8 -23 15 -23 52 0
36 31 51 94 44 30 -4 51 -2 55 5 8 13 141 20 159 8 14 -8 55 11 48 23 -7 11
-200 1 -204 -10 -9 -23 -147 1 -169 29 -11 15 -12 12 -6 -17 5 -26 3 -32 -6
-27 -7 5 -10 14 -7 22 3 7 -1 17 -9 21 -25 14 -145 355 -150 427 -2 27 -9 52
-16 56 -8 6 -8 9 0 11 9 3 9 12 1 34 -7 17 -14 37 -16 45 -2 8 -11 40 -19 70
-20 73 -20 91 3 83 11 -4 10 0 -6 11 -12 10 -22 26 -22 37 0 22 11 24 28 7 7
-7 12 -8 12 -2 0 5 -5 15 -12 22 -9 9 -9 12 0 12 7 0 12 16 12 41 0 33 4 42
21 46 14 4 19 12 16 24 -3 11 -2 17 2 15 4 -3 20 4 37 15 23 16 25 20 9 18
-32 -2 -61 2 -48 8 16 6 17 24 2 20 -6 -1 -13 10 -14 25 -2 16 1 28 6 28 5 0
9 -10 10 -22 1 -21 2 -20 11 5 8 23 15 27 49 27 21 0 39 5 39 10 0 6 19 10 43
11 23 0 60 4 82 8 l40 7 -35 7 c-36 7 -264 11 -289 5 -7 -2 -16 3 -18 10 -3 8
9 12 39 13 23 1 63 2 88 3 25 1 76 3 113 4 80 2 83 22 4 23 -29 0 -74 5 -102
9 -39 7 -32 7 33 3 56 -3 82 -2 82 6 0 6 -19 12 -42 13 l-43 1 45 7 45 6 -35
6 c-19 3 2 5 47 4 44 0 76 2 70 6 -6 3 34 6 89 5 54 0 126 3 159 8 59 8 59 8
25 16 -19 4 -108 6 -197 3 -159 -4 -163 -4 -163 16 0 11 7 20 15 20 8 0 15 4
15 9 0 5 12 12 27 16 27 6 27 7 9 21 -19 13 -19 14 6 14 15 0 29 -4 32 -9 10
-15 56 -20 56 -5 0 8 22 15 65 19 70 8 89 25 28 25 -31 1 -35 3 -20 11 27 16
9 30 -29 23 -25 -5 -40 -2 -53 10 -16 14 -20 15 -30 2 -14 -16 -42 -11 -38 7
1 7 9 15 17 19 10 4 4 7 -15 8 -27 0 -28 2 -11 12 13 7 29 7 52 0 27 -8 34 -7
34 4 0 9 12 14 38 14 20 1 62 2 92 3 39 2 58 -1 66 -12 10 -12 18 -13 51 -3
49 15 159 16 168 2 11 -18 27 -11 22 10 -3 11 0 23 6 27 6 4 1 10 -12 15 -19
7 -21 11 -11 23 7 9 8 15 2 15 -5 0 -12 9 -15 20 -3 13 0 20 9 20 8 0 14 5 14
10 0 6 -12 10 -27 9 -49 -2 -88 15 -91 40 -2 15 0 21 7 17 19 -12 12 1 -29 50
-44 53 -46 48 29 72 27 9 38 8 58 -5 16 -11 20 -18 13 -23 -7 -5 -9 -16 -5
-29 6 -20 8 -21 19 -6 12 17 10 79 -3 71 -3 -2 -7 6 -7 18 -1 16 8 26 35 37
50 22 104 39 127 39 10 0 28 7 38 15 11 8 28 15 38 15 11 0 33 7 51 17 63 32
193 62 267 60 38 -1 64 0 58 2 -18 6 181 61 237 66 17 1 40 7 52 13 12 7 30
12 40 12 10 0 28 6 39 14 11 8 49 19 85 25 76 14 197 50 205 62 3 5 12 9 20 9
8 0 34 9 56 20 23 11 54 20 70 20 15 0 28 5 28 11 0 7 -15 9 -42 5 l-43 -6 30
15 c17 8 42 14 58 15 15 0 27 4 27 9 0 11 -70 20 -142 16 -46 -2 -55 0 -51 12
4 10 0 13 -11 11 -12 -2 -21 8 -31 35 -12 34 -11 37 6 37 11 0 19 -4 19 -10 0
-5 5 -10 11 -10 5 0 7 5 4 10 -6 10 13 15 48 12 16 -2 19 3 21 38 1 8 18 23
39 33 52 26 47 39 -13 31 -34 -5 -50 -3 -50 5 0 6 9 11 20 11 11 0 20 4 20 10
0 10 -14 14 -82 25 -21 3 -38 10 -38 15 0 4 -3 15 -6 24 -4 11 -1 16 11 16 12
0 15 -5 10 -21 -6 -17 -3 -20 12 -17 10 2 17 11 15 21 -2 12 4 17 18 17 12 0
18 5 15 10 -4 6 18 10 57 11 35 1 72 3 83 5 11 2 45 7 76 12 32 4 69 16 84 26
21 14 29 15 41 5 9 -8 18 -8 27 -1 6 5 43 10 82 11 38 1 72 5 75 10 3 5 19 12
35 16 17 4 39 9 50 12 17 5 18 4 7 -10 -12 -14 -4 -15 67 -10 57 4 85 2 96 -7
12 -10 18 -10 31 1 9 7 32 15 50 16 31 2 33 0 24 -18 -9 -15 -7 -19 5 -19 19
0 45 23 45 39 0 15 23 14 38 -1 7 -7 12 -8 12 -2 0 7 21 9 54 6 33 -3 56 0 60
7 4 6 16 11 27 11 10 0 19 4 19 9 0 5 -48 10 -106 10 -58 1 -114 6 -123 11
-11 6 26 9 112 10 77 0 126 4 122 9 -3 6 -43 7 -93 4 -57 -4 -96 -2 -109 6
-16 8 -23 8 -26 -2 -4 -9 -6 -9 -6 1 -1 7 6 15 14 18 24 10 17 24 -12 24 -34
0 -20 15 27 29 l35 11 -32 -3 c-22 -2 -33 1 -33 9 0 8 6 11 15 8 8 -4 26 1 40
10 30 20 35 20 35 0 0 -14 7 -15 38 -10 56 11 283 6 315 -7 9 -4 24 -9 32 -12
22 -7 18 -25 -5 -25 -11 0 -20 -4 -20 -10 0 -10 21 -14 48 -11 23 3 9 -32 -18
-42 -13 -4 -12 -6 1 -6 27 -1 38 21 41 84 l3 60 82 -1 c45 -1 80 3 77 7 -3 5
-17 9 -31 9 -15 0 -23 3 -20 6 9 10 239 44 249 38 4 -3 8 0 8 5 0 6 12 11 26
11 24 0 25 -3 24 -47 -4 -110 -2 -120 26 -127 15 -4 28 -5 31 -2 2 2 8 44 11
93 l7 88 45 -3 c25 -2 79 -10 121 -18 42 -9 96 -14 120 -12 40 3 35 5 -48 21
-51 10 -125 21 -165 24 -50 4 -65 9 -51 14 20 7 213 46 280 56 l33 5 0 -54 c0
-49 3 -56 26 -66 14 -7 22 -17 19 -22 -3 -6 1 -7 10 -4 9 4 12 11 7 18 -10 13
-3 116 7 116 5 0 54 -11 111 -25 61 -16 107 -22 112 -17 12 12 -63 32 -177 48
-82 10 -71 40 18 51 67 8 80 8 178 -8 l65 -10 -1 -42 c-1 -38 -4 -43 -31 -49
l-29 -7 30 2 c29 3 30 1 31 -43 1 -25 5 -55 9 -68 6 -17 4 -21 -6 -17 -11 4
-14 -11 -16 -70 -1 -41 3 -75 8 -75 5 0 9 9 9 21 0 11 4 18 10 14 5 -3 7 -12
3 -20 -6 -18 1 -19 28 -5 11 6 19 7 19 1 0 -5 -7 -11 -15 -15 -8 -3 -15 -12
-15 -20 0 -8 -6 -17 -12 -19 -8 -3 -6 -6 5 -6 9 -1 17 -6 17 -12 0 -7 20 -9
58 -5 l57 5 -40 -14 c-54 -18 -73 -18 -93 1 -14 15 -17 15 -27 0 -7 -9 -15
-13 -19 -9 -3 3 -23 8 -44 10 l-37 3 29 -15 c15 -8 32 -13 36 -10 21 13 29
-115 8 -133 -7 -6 -44 -20 -83 -32 -38 -11 -92 -30 -120 -40 -27 -10 -62 -22
-77 -26 -25 -5 -28 -3 -28 19 0 21 -3 24 -27 18 -26 -5 -26 -6 -5 -9 26 -4 20
-22 -9 -22 -16 0 -18 -5 -13 -25 5 -22 2 -26 -24 -31 -21 -4 -29 -11 -25 -20
3 -8 10 -11 16 -7 5 3 16 -2 24 -12 8 -12 13 -14 13 -6 0 9 8 11 25 7 17 -4
24 -3 23 6 -2 7 17 18 42 25 25 8 92 29 150 47 58 19 108 32 113 29 4 -2 5
-51 1 -109 -5 -85 -3 -103 8 -100 31 10 152 16 139 7 -11 -7 -5 -11 25 -17 21
-4 42 -12 46 -17 4 -8 15 -7 33 1 30 14 64 16 50 3 -19 -16 -73 -29 -82 -20
-12 12 -75 15 -92 5 -17 -11 5 -36 30 -36 11 0 19 -4 19 -8 0 -8 -138 -52
-165 -52 -27 0 -16 -27 18 -40 17 -7 43 -17 56 -24 23 -10 22 -11 -19 -17 -44
-6 -79 -35 -81 -68 0 -9 -2 -23 -4 -31 -2 -13 15 -14 124 -9 69 3 129 4 134 2
18 -10 -7 -23 -46 -24 l-42 -1 49 -10 c35 -6 51 -6 56 3 5 7 10 8 14 1 7 -11
99 -9 131 3 15 5 16 4 6 -3 -11 -8 -9 -11 10 -15 13 -2 -1 -5 -31 -6 -30 -1
-82 -5 -115 -10 -33 -6 -114 -12 -179 -15 -66 -3 -124 -10 -129 -15 -18 -18
17 -22 104 -11 106 13 200 13 219 -1 11 -7 5 -10 -25 -8 -66 3 -221 -3 -202
-8 24 -6 21 -21 -5 -26 -13 -2 0 -5 27 -6 28 -1 61 -4 75 -7 20 -4 22 -3 10 5
-19 13 -5 14 37 2 36 -10 54 2 27 17 -13 7 -5 9 27 9 24 -1 48 -6 52 -12 6 -7
10 -6 14 3 2 6 13 12 23 12 29 0 50 11 50 26 0 14 5 15 124 18 70 3 47 -10
-36 -19 -52 -6 -78 -18 -65 -31 2 -2 31 -9 63 -15 98 -19 106 -24 54 -39 -25
-7 -74 -16 -110 -20 l-65 -7 80 -2 c44 0 98 -5 120 -9 35 -7 37 -9 18 -16 -13
-4 -23 -16 -23 -27 0 -10 -5 -19 -11 -19 -5 0 -8 -3 -5 -8 6 -10 96 -2 96 9 0
5 26 9 58 9 77 0 87 12 20 26 -44 10 -48 12 -20 13 18 0 40 8 48 16 9 8 24 15
35 15 10 0 19 5 19 10 0 6 9 10 19 10 30 0 33 16 6 30 -14 7 -25 19 -25 26 0
8 -17 14 -42 17 -36 3 -33 4 17 5 33 1 70 5 83 8 16 5 22 2 22 -10 0 -11 -9
-16 -27 -17 l-28 0 24 -10 c17 -7 27 -6 32 2 4 7 13 9 21 6 8 -3 21 -1 29 4
11 7 9 9 -8 9 -12 0 -25 5 -28 10 -4 6 6 10 24 10 16 0 31 -5 33 -11 5 -15 58
0 58 17 0 8 7 14 14 14 8 0 35 11 60 24 l45 24 22 -24 22 -24 -27 0 c-24 0
-27 2 -16 15 10 12 10 15 -1 15 -8 0 -20 -9 -27 -20 -7 -11 -23 -20 -37 -20
-46 0 -25 -15 45 -34 39 -10 76 -23 83 -29 7 -8 27 -10 52 -6 34 5 36 6 10 8
-16 1 -36 5 -43 10 -20 12 103 23 133 11 15 -6 42 -10 61 -10 19 0 34 -4 34
-10 0 -5 -13 -10 -29 -10 -50 0 -91 -12 -91 -27 0 -7 7 -16 15 -19 24 -10 18
-19 -21 -33 -34 -12 -36 -15 -32 -52 3 -37 2 -39 -24 -39 -18 0 -28 -5 -28
-14 0 -12 -11 -13 -54 -9 -48 5 -215 -22 -204 -33 18 -18 297 -22 307 -5 8 13
81 2 81 -11 0 -5 4 -7 9 -3 6 3 28 3 50 -1 27 -4 38 -10 34 -20 -3 -8 7 -15
31 -20 67 -12 37 -22 -79 -26 -69 -2 -119 -8 -123 -14 -4 -6 -20 -16 -37 -22
-24 -9 -14 -10 55 -6 47 3 99 1 115 -4 l30 -9 -42 -7 c-24 -4 -43 -12 -43 -17
0 -13 78 -11 82 2 3 8 13 7 33 -4 l30 -16 -25 -2 c-14 -1 -35 -1 -47 0 -13 1
-23 -3 -23 -9 0 -6 -27 -10 -65 -10 -37 0 -65 -4 -65 -10 0 -5 -18 -10 -40
-10 -22 0 -40 -3 -40 -7 0 -5 -46 -9 -101 -11 -56 -2 -122 -8 -148 -13 -25 -5
-68 -12 -95 -15 -26 -3 -62 -11 -80 -19 -30 -14 -29 -14 29 -9 33 3 74 10 90
14 17 5 91 10 167 12 75 2 134 6 132 9 -6 10 111 18 177 12 45 -5 63 -2 69 7
7 11 16 11 43 3 26 -8 43 -7 73 4 53 20 102 28 89 15 -5 -5 -19 -12 -30 -15
-11 -3 -2 -5 20 -6 39 -1 89 17 55 20 -30 2 36 17 80 18 34 1 48 6 58 22 11
18 11 23 -4 34 -10 7 -24 11 -31 8 -7 -3 -13 -1 -13 5 0 5 -15 13 -32 17 -18
4 -27 9 -20 12 6 2 10 9 6 14 -3 5 2 12 10 15 9 3 16 13 16 21 0 9 6 12 19 8
10 -3 24 1 31 10 8 10 9 15 1 15 -6 0 -11 4 -11 9 0 5 8 7 18 4 14 -3 21 3 28
29 8 26 16 34 37 36 15 2 25 7 22 12 -3 5 -1 11 5 15 17 10 11 25 -10 25 -29
0 -26 37 6 67 23 21 25 22 19 3 -5 -15 9 -35 59 -87 35 -38 77 -84 93 -104 15
-19 35 -42 43 -51 42 -43 182 -199 215 -238 20 -25 49 -57 63 -72 15 -14 59
-63 97 -108 39 -45 118 -138 178 -205 59 -68 107 -127 107 -132 0 -6 9 -18 19
-27 10 -10 21 -26 24 -36 4 -18 2 -17 -30 5 -20 13 -43 34 -52 47 -35 52 -77
98 -88 98 -7 0 -13 3 -13 8 0 4 -12 20 -27 36 -25 29 -26 29 -40 10 -17 -21
-17 -24 -2 36 3 9 -4 14 -16 15 -11 0 -20 5 -20 10 0 6 -9 23 -20 39 -17 26
-20 27 -26 10 -6 -15 -8 -13 -8 9 -1 19 -5 27 -14 24 -6 -2 -11 -10 -9 -16 1
-6 -11 -11 -28 -11 -20 0 -30 5 -30 15 0 8 7 15 15 15 8 0 15 7 15 15 0 11
-13 15 -54 15 -39 0 -55 -4 -60 -15 -3 -8 -15 -15 -26 -15 -11 0 -23 -7 -26
-15 -10 -26 -26 -16 -20 12 3 16 3 22 0 16 -4 -10 -11 -10 -25 -2 -11 5 -17
14 -14 19 3 5 -6 12 -20 16 -29 7 -31 12 -8 29 14 11 14 13 -8 19 -13 4 -41
29 -62 56 -43 57 -55 62 -49 20 5 -38 -11 -53 -73 -69 -27 -7 -55 -17 -62 -22
-14 -12 -47 17 -58 50 -4 13 -15 21 -30 21 -23 0 -43 28 -28 39 4 3 9 25 11
48 3 38 0 44 -22 55 -27 12 -50 3 -28 -11 9 -5 9 -12 -3 -27 -15 -19 -15 -19
-30 1 -14 17 -28 20 -103 20 -48 1 -75 -1 -60 -3 25 -3 26 -7 30 -62 5 -102
-22 -115 -263 -124 -115 -4 -139 -3 -159 11 -22 16 -24 15 -45 -8 -17 -21 -40
-29 -128 -44 -111 -20 -132 -34 -81 -57 20 -9 27 -9 33 1 6 10 27 11 87 5 44
-4 72 -9 64 -12 -8 -2 -22 -11 -31 -19 -11 -9 -43 -14 -90 -15 -48 -1 -78 -6
-84 -15 -8 -10 -145 -33 -202 -33 -6 0 -19 -7 -28 -16 -9 -9 -36 -19 -61 -22
-69 -7 -61 -19 21 -31 60 -9 88 -8 145 4 84 18 100 18 100 5 0 -5 -19 -11 -42
-12 l-43 -1 45 -6 45 -7 -35 -8 c-19 -4 -43 -10 -54 -13 -12 -3 -16 -1 -12 6
8 12 -6 15 -18 4 -11 -11 -75 -13 -81 -2 -4 5 -16 9 -28 8 -20 -1 -19 -2 4
-10 15 -6 29 -19 32 -29 4 -14 14 -20 35 -20 20 0 37 -8 47 -22 12 -16 19 -19
22 -10 3 6 12 12 21 12 8 0 23 7 33 16 16 15 20 15 34 1 25 -26 18 -34 -32
-36 -27 -1 -49 -6 -51 -11 -2 -6 -17 -10 -33 -10 -32 0 -69 -16 -81 -33 -4 -7
-55 -11 -125 -12 -122 -1 -143 -6 -143 -31 0 -8 -4 -14 -10 -14 -5 0 -10 7
-10 15 0 8 -9 15 -20 15 -23 0 -27 -28 -5 -36 23 -9 19 -44 -5 -44 -11 0 -20
7 -20 15 0 8 -7 15 -15 15 -29 0 -14 -26 25 -43 22 -9 40 -24 40 -32 0 -8 6
-15 14 -15 16 0 46 -26 46 -40 0 -15 -33 -24 -124 -34 -44 -6 -74 -26 -38 -26
12 0 22 -5 22 -10 0 -7 20 -10 50 -9 52 3 75 -6 46 -17 -19 -7 -22 -34 -3 -34
8 0 22 -9 32 -20 18 -20 17 -20 -12 -20 -33 0 -69 -32 -57 -51 5 -9 -1 -10
-22 -5 -66 17 -114 19 -114 4 0 -9 -18 -21 -42 -28 -36 -12 -39 -15 -20 -18
13 -2 37 2 53 9 16 6 33 8 37 5 12 -13 -31 -36 -67 -36 -34 0 -71 -14 -61 -23
10 -9 100 -14 100 -6 0 5 11 9 25 9 14 0 42 7 62 15 45 19 53 19 53 0 0 -8 -6
-15 -14 -15 -8 0 -16 -7 -20 -15 -4 -11 -20 -15 -56 -15 -30 0 -50 -4 -50 -11
0 -6 7 -8 15 -5 9 3 18 -1 22 -10 7 -19 -18 -38 -57 -43 -5 0 -10 -8 -10 -16
0 -8 -6 -15 -14 -15 -7 0 -27 -7 -42 -15 -33 -17 -90 -21 -64 -5 8 5 10 10 4
10 -6 0 -17 -7 -24 -15 -15 -18 -37 -19 -43 -2 -4 10 -6 10 -6 0 -1 -8 -14
-13 -33 -13 -38 0 -33 -9 8 -12 16 -1 34 -6 41 -11 7 -5 20 -4 33 3 12 6 23
10 25 8 7 -7 -50 -68 -63 -68 -7 0 -12 -7 -12 -15 0 -8 -6 -15 -13 -15 -8 0
-22 -9 -32 -20 -12 -13 -25 -18 -38 -14 -11 3 -17 2 -14 -3 3 -5 -5 -21 -18
-35 l-23 -25 86 -57 c47 -31 95 -55 107 -55 20 1 20 1 0 6 -27 7 -44 23 -23
23 9 0 19 6 21 13 4 8 6 7 6 -3 1 -11 13 -15 41 -15 22 -1 40 3 40 7 0 4 -5 8
-12 8 -6 0 -9 2 -6 5 7 7 46 -8 48 -19 1 -5 -4 -12 -12 -17 -7 -5 -14 -16 -14
-26 -1 -10 -5 -26 -9 -35 -4 -11 1 -20 17 -29 19 -10 75 -50 123 -86 8 -7 33
-20 78 -41 5 -2 -4 8 -18 22 -14 15 -30 24 -35 21 -4 -3 -10 1 -13 8 -3 7 4
12 18 12 13 0 22 -2 20 -4 -2 -2 2 -9 8 -16 7 -8 26 -11 49 -7 28 3 39 1 43
-10 5 -12 17 -14 51 -10 36 4 44 2 44 -12 0 -9 -8 -16 -19 -16 -10 0 -21 -7
-25 -15 -3 -8 -10 -15 -17 -15 -6 0 -9 6 -6 14 4 10 0 12 -15 8 -19 -5 -20 -6
-4 -17 9 -7 37 -16 61 -20 42 -6 62 -28 34 -37 -19 -6 -2 -41 28 -60 16 -9 51
-33 78 -53 55 -40 208 -144 234 -160 9 -5 18 -12 21 -16 12 -13 173 -119 181
-119 5 0 9 -4 9 -9 0 -5 16 -16 35 -25 35 -17 50 -56 22 -56 -16 0 -102 53
-111 69 -4 6 -16 11 -27 11 -10 0 -19 4 -19 9 0 11 -102 77 -113 73 -5 -1 -6
1 -3 6 3 5 -14 19 -37 32 -23 13 -72 46 -109 74 -37 28 -86 64 -110 79 -24 15
-78 53 -121 83 -64 45 -77 51 -72 33 4 -13 3 -19 -3 -15 -5 3 -16 -2 -23 -11
-12 -14 -12 -16 2 -11 11 4 19 -3 26 -23 12 -30 5 -37 -15 -17 -8 8 -12 9 -12
1 0 -16 64 -65 68 -53 2 6 8 8 12 5 5 -3 7 -11 4 -18 -7 -21 57 -52 106 -52
42 0 45 -2 48 -29 2 -18 0 -26 -7 -21 -6 3 -11 2 -11 -3 0 -6 7 -12 15 -15 8
-4 69 -46 137 -95 68 -49 158 -113 201 -142 42 -30 77 -57 77 -62 0 -4 509 -8
1130 -8 l1130 0 0 4140 0 4140 -2172 -1 c-1834 0 -2168 -3 -2138 -14 19 -7 45
-14 56 -14 12 -1 24 -7 27 -15 3 -8 22 -19 41 -26 20 -6 36 -18 36 -26 0 -8 7
-17 15 -20 8 -4 13 -10 10 -14 -2 -4 4 -15 15 -25 11 -10 20 -27 20 -38 0 -25
-31 -77 -47 -77 -7 0 -17 -9 -23 -20 -6 -11 -17 -20 -24 -20 -8 0 -17 -7 -20
-16 -4 -10 -12 -14 -22 -10 -10 4 -18 0 -21 -12 -2 -11 -20 -22 -46 -28 -65
-17 -72 -19 -77 -25 -3 -3 -47 -9 -97 -11 -71 -4 -95 -2 -104 8 -6 8 -18 14
-26 14 -8 0 -33 11 -57 24 -23 13 -57 27 -74 30 -21 5 -29 12 -25 22 3 10 0
12 -10 8 -17 -6 -60 18 -95 54 -12 13 -27 20 -32 17 -6 -3 -10 -2 -10 4 0 5 5
13 10 16 6 3 10 14 10 24 0 10 9 30 21 45 11 14 15 26 9 26 -7 0 -6 6 4 15 8
8 19 15 25 15 6 0 15 9 21 20 6 11 17 20 25 20 8 0 15 5 15 10 0 6 7 10 15 10
8 0 15 4 15 9 0 5 8 12 18 14 9 3 -790 5 -1775 6 l-1793 1 0 -267z m6923 -447
c3 -8 0 -21 -6 -30 -16 -20 -125 -50 -209 -58 -16 -1 -28 -6 -28 -10 0 -4 -10
-5 -22 -3 -12 3 -36 1 -53 -4 -16 -5 -52 -16 -80 -24 -46 -14 -47 -15 -17 -16
17 -1 32 4 32 10 0 6 8 8 19 4 11 -3 39 -1 63 4 23 5 79 15 123 21 44 6 103
16 130 20 28 5 76 12 108 16 49 5 57 4 57 -10 0 -17 -19 -27 -85 -44 -105 -28
-134 -33 -185 -36 -63 -4 -177 -22 -235 -38 -22 -7 -58 -13 -80 -15 -22 -2
-54 -8 -72 -14 -18 -6 -37 -8 -42 -5 -5 4 -22 1 -38 -5 -15 -6 -53 -15 -83
-20 -114 -19 -219 -38 -335 -63 -66 -14 -158 -33 -205 -42 -47 -9 -105 -20
-130 -25 -25 -5 -76 -14 -115 -20 -38 -6 -74 -14 -80 -18 -5 -4 -44 -13 -85
-20 -41 -7 -95 -19 -120 -27 -25 -7 -65 -16 -89 -19 -23 -3 -47 -7 -52 -10 -4
-3 -24 -6 -44 -7 -19 -1 -35 -5 -35 -10 0 -4 -20 -8 -44 -8 -25 0 -48 -4 -51
-10 -3 -5 -19 -10 -36 -10 -16 0 -29 -3 -29 -7 0 -5 -10 -9 -22 -9 -51 -3
-188 -29 -188 -35 0 -4 -9 -5 -20 -2 -11 3 -26 0 -33 -6 -8 -6 -45 -16 -83
-22 -89 -14 -96 -15 -114 -22 -8 -3 -42 -11 -75 -17 -33 -6 -71 -13 -85 -16
-14 -2 -32 -7 -40 -10 -8 -3 -26 -8 -40 -10 -14 -2 -45 -9 -70 -15 -221 -49
-278 -54 -265 -22 4 11 1 13 -11 9 -43 -17 -90 -18 -103 -2 -18 21 -26 19 410
127 206 52 376 97 377 101 2 5 8 6 13 3 4 -3 86 13 181 35 95 23 200 48 233
55 58 13 308 72 430 100 251 59 814 172 1390 280 268 50 261 49 268 31z
m-4583 -115 c34 -10 45 -10 48 -1 3 7 7 8 11 4 3 -5 31 -18 61 -28 30 -11 57
-22 60 -25 3 -4 17 -14 33 -24 15 -10 27 -24 27 -33 0 -8 -4 -12 -10 -9 -5 3
-10 -2 -10 -13 0 -44 -98 -100 -177 -102 -62 -2 -170 15 -188 30 -5 4 -26 11
-46 15 -50 9 -99 41 -99 63 0 32 23 68 62 97 21 16 38 31 38 35 0 11 145 4
190 -9z m-1515 -643 c114 -25 707 -196 716 -206 4 -4 10 -128 13 -277 4 -148
11 -326 16 -395 5 -69 10 -209 10 -312 0 -103 4 -198 10 -212 8 -22 7 -26 -9
-26 -24 0 -27 -9 -22 -66 2 -35 8 -48 22 -51 10 -3 19 -13 19 -23 0 -16 -16
-18 -157 -24 -87 -4 -192 -9 -233 -12 -79 -4 -420 -20 -650 -30 -117 -4 -133
-3 -118 9 12 10 45 14 107 14 49 1 93 3 98 5 4 3 54 5 110 4 57 -1 103 2 103
5 0 14 -28 29 -43 23 -12 -4 -17 4 -21 38 -10 82 -14 203 -6 183 8 -20 8 -20
16 -1 5 13 3 21 -4 24 -7 2 -10 8 -6 13 3 5 0 9 -5 9 -6 0 -11 7 -11 15 0 8
-5 15 -11 15 -5 0 -7 -4 -4 -10 3 -5 -3 -10 -14 -10 -21 0 -29 24 -11 35 6 3
5 15 -2 31 -10 22 -9 27 5 35 12 7 15 17 11 35 -5 19 -3 23 10 18 12 -4 16 0
16 15 0 12 3 20 8 20 22 -4 32 3 32 21 0 20 19 29 21 10 1 -5 2 -13 3 -17 2
-12 40 -53 48 -53 12 0 9 25 -4 38 -6 6 -13 22 -15 34 -3 20 -2 20 20 -5 26
-30 37 -34 37 -12 0 8 -4 15 -10 15 -5 0 -10 10 -10 22 0 22 0 22 22 -2 22
-23 23 -23 27 -5 2 11 7 25 12 31 11 13 -11 64 -28 64 -19 0 -16 -14 7 -28 11
-7 17 -18 14 -27 -9 -22 -23 -18 -34 8 -8 18 -19 37 -38 67 -2 2 -8 -2 -13
-10 -8 -12 -9 -10 -4 6 3 12 1 33 -4 47 -7 17 -7 28 -1 32 6 4 10 -1 10 -9 0
-18 35 -57 44 -49 3 3 -6 22 -19 42 -14 19 -25 45 -25 56 0 15 -2 17 -9 6 -10
-15 -19 21 -27 108 -2 30 -7 57 -9 60 -3 2 -26 6 -51 7 -49 3 -65 11 -48 22 6
4 10 51 10 107 1 135 7 256 12 223 2 -16 11 -30 23 -33 18 -6 27 -25 12 -25
-19 -1 -33 -18 -27 -33 3 -9 10 -15 15 -12 4 3 5 13 2 23 -6 14 -4 15 8 5 12
-9 33 -2 106 35 50 26 102 54 114 63 23 15 21 16 -46 18 -39 1 -88 4 -110 6
-39 4 -214 17 -400 31 -49 3 -92 10 -95 15 -3 5 -6 30 -5 56 l0 47 35 -1 c75
-3 228 -13 275 -18 l50 -6 -3 61 c-5 80 0 92 35 85 16 -4 51 -11 78 -17z m622
3 l28 -8 -35 -18 c-29 -15 -48 -17 -134 -11 -54 4 -113 10 -129 13 l-30 6 24
19 c22 17 35 18 136 13 61 -4 124 -10 140 -14z m-760 -63 c-3 -8 -6 -5 -6 6
-1 11 2 17 5 13 3 -3 4 -12 1 -19z m-517 -8 c0 -5 -5 -10 -11 -10 -5 0 -7 5
-4 10 3 6 8 10 11 10 2 0 4 -4 4 -10z m662 -235 c3 3 3 -6 0 -21 -5 -26 -6
-26 -18 -9 -19 25 -19 52 -1 36 8 -6 16 -8 19 -6z m35 -17 c-3 -7 -5 -2 -5 12
0 14 2 19 5 13 2 -7 2 -19 0 -25z m1303 -52 c69 -14 214 -38 323 -53 116 -17
197 -32 197 -39 0 -6 19 -10 42 -10 l43 1 6 -45 c4 -25 8 -49 9 -55 2 -5 -1
-25 -5 -42 -6 -26 -13 -33 -31 -33 l-24 0 0 -144 c0 -96 -4 -147 -11 -152 -12
-7 -135 -7 -330 1 l-126 6 -13 -30 c-10 -26 -17 -30 -53 -29 -23 0 -43 -4 -45
-8 -2 -5 -20 -40 -40 -78 -38 -70 -70 -103 -79 -78 -3 6 -11 12 -18 12 -7 0
-15 7 -19 15 -5 15 -12 190 -21 584 l-5 214 37 -6 c21 -4 94 -18 163 -31z
m-1470 -96 c0 -5 -22 -10 -50 -10 -27 0 -50 5 -50 10 0 6 23 10 50 10 28 0 50
-4 50 -10z m2244 -28 c5 -3 39 -4 77 -3 41 1 70 -2 74 -9 4 -7 23 -9 48 -5 45
6 99 -5 104 -21 3 -8 -91 0 -239 23 -38 5 -38 5 -32 -25 8 -41 -29 -92 -67
-92 -22 0 -27 4 -26 20 1 11 2 20 3 20 2 0 14 -4 28 -9 21 -9 25 -7 33 17 12
37 5 65 -14 58 -22 -9 -53 3 -53 18 0 13 46 19 64 8z m386 -38 c0 -9 -11 -14
-29 -14 -31 0 -50 15 -29 23 27 9 58 4 58 -9z m53 4 c-2 -5 -4 -7 -6 -5 -2 1
-11 -6 -21 -15 -13 -14 -15 -22 -6 -38 6 -11 15 -18 21 -15 5 4 9 1 9 -4 0 -6
-13 -11 -30 -11 -16 0 -30 5 -30 11 0 5 5 7 11 3 7 -4 9 0 5 14 -4 11 -4 32 0
47 5 19 12 25 28 23 11 -2 20 -6 19 -10z m1701 -55 c-3 -38 -9 -167 -14 -288
-5 -121 -12 -240 -15 -265 -3 -25 -6 -54 -6 -65 0 -29 -16 -43 -44 -37 -15 2
-25 0 -25 -7 0 -6 16 -11 35 -11 l35 0 0 -54 c0 -73 -6 -86 -44 -87 l-31 -2
35 -7 c19 -4 31 -8 25 -10 -23 -5 -189 2 -209 9 -11 5 -38 6 -58 3 l-38 -4 0
79 c0 44 3 114 6 156 6 66 10 77 25 77 11 0 19 3 19 8 0 4 3 18 7 32 3 14 2
22 -2 18 -4 -4 -16 -3 -27 3 -21 11 -21 1 -4 369 1 19 3 58 4 87 l2 52 58 4
c31 2 105 4 165 5 l107 2 -6 -67z m-829 -53 c-1 -52 -2 -200 -4 -328 -3 -216
-5 -233 -22 -243 -11 -5 -24 -7 -29 -4 -6 3 -10 0 -10 -8 0 -10 8 -13 25 -9
l25 4 0 -90 c0 -98 -3 -103 -57 -95 -25 4 -29 8 -20 18 7 7 15 11 20 8 4 -2 6
29 5 69 -2 69 -2 70 -5 16 -4 -49 -7 -57 -26 -60 -12 -2 -21 -9 -19 -17 4 -18
-16 -31 -50 -31 -31 0 -37 -14 -12 -24 9 -3 49 -6 90 -6 73 0 74 -1 69 -23 -4
-13 -7 -32 -9 -43 -2 -16 -13 -20 -67 -25 -68 -6 -92 -2 -83 12 3 5 34 9 70 9
62 0 64 1 64 25 0 14 -4 25 -10 25 -5 0 -10 -9 -10 -19 0 -18 -7 -19 -81 -17
-76 2 -107 -7 -79 -24 16 -10 3 -16 -42 -19 -31 -1 -37 2 -40 21 -3 23 -48 41
-48 19 0 -6 7 -11 15 -11 8 0 15 -7 15 -15 0 -12 -13 -15 -60 -15 l-60 0 0
500 0 500 223 -2 222 -3 0 -95z m428 -187 c-6 -356 -9 -385 -43 -394 l-25 -6
28 -12 c19 -7 26 -15 20 -23 -4 -7 -6 -37 -4 -66 2 -34 -3 -65 -14 -88 -9 -19
-14 -49 -12 -67 4 -31 4 -31 5 6 2 47 22 49 22 2 0 -28 -4 -36 -24 -41 -39 -9
-46 2 -41 61 l6 55 -46 0 -45 0 0 -40 c0 -22 5 -40 10 -40 6 0 10 -4 10 -10 0
-5 -7 -10 -15 -10 -8 0 -15 -7 -15 -16 0 -9 -7 -14 -17 -12 -15 3 -18 17 -21
91 -1 48 -5 87 -9 87 -3 0 -12 -8 -19 -17 -12 -17 -13 -16 -22 7 -5 14 -19 34
-31 44 -16 15 -18 22 -10 33 9 10 8 17 -1 28 -10 12 -10 15 4 15 9 0 16 -7 16
-15 0 -8 6 -15 14 -15 8 0 16 7 20 15 3 8 13 15 21 15 9 0 14 4 11 9 -9 14
-44 1 -48 -18 -3 -10 -6 -6 -10 11 -3 15 -2 25 2 23 4 -3 10 9 14 25 3 17 10
30 16 30 7 0 8 -6 0 -19 -6 -11 -6 -22 -1 -25 16 -10 21 48 5 64 -10 10 -14
10 -14 2 0 -7 -4 -12 -9 -12 -5 0 -7 9 -4 20 3 11 10 20 15 20 6 0 5 7 -2 15
-16 19 -30 19 -30 -1 0 -11 -8 -14 -32 -12 l-33 3 3 260 c1 143 5 270 8 283 4
22 6 22 178 22 l174 0 -5 -287z m-1783 267 c0 -5 -4 -10 -10 -10 -5 0 -10 5
-10 10 0 6 5 10 10 10 6 0 10 -4 10 -10z m449 -70 c24 0 41 -3 38 -7 -8 -7
-95 -5 -108 3 -5 3 -6 10 -3 16 4 6 10 6 17 -1 6 -6 31 -11 56 -11z m-99 -100
c0 -13 -60 -80 -71 -80 -17 0 -9 17 28 53 39 40 43 42 43 27z m-293 -182 c-3
-8 -6 -5 -6 6 -1 11 2 17 5 13 3 -3 4 -12 1 -19z m-407 -87 c-6 -12 -15 -21
-21 -21 -5 0 -2 15 7 33 10 17 19 27 21 20 2 -7 -1 -21 -7 -32z m253 -4 c3 5
42 10 87 12 68 2 81 -1 87 -15 4 -10 2 -19 -4 -21 -7 -3 -9 -17 -6 -37 3 -22
0 -38 -9 -47 -8 -7 -12 -23 -10 -36 5 -27 21 -32 17 -5 -1 9 0 11 2 5 3 -7 10
-13 16 -13 7 0 6 -4 -3 -10 -8 -6 -48 -9 -88 -8 -40 2 -68 4 -62 6 5 2 10 12
10 23 0 12 5 16 14 13 8 -3 16 -1 20 4 3 5 0 9 -7 10 -7 0 -29 4 -49 8 -37 6
-38 6 -38 -25 0 -17 -4 -31 -10 -31 -5 0 -10 13 -10 29 0 16 -5 31 -11 33 -9
3 -9 10 0 27 7 13 10 33 7 46 -7 26 23 53 35 33 4 -6 9 -6 12 -1z m-1905 -22
c-3 -3 -9 2 -12 12 -6 14 -5 15 5 6 7 -7 10 -15 7 -18z m1788 -2 c-10 -10 -19
5 -10 18 6 11 8 11 12 0 2 -7 1 -15 -2 -18z m359 6 c11 -16 1 -19 -13 -3 -7 8
-8 14 -3 14 5 0 13 -5 16 -11z m-2238 -41 c-3 -8 -6 -5 -6 6 -1 11 2 17 5 13
3 -3 4 -12 1 -19z m1853 -19 c0 -5 -12 -9 -26 -9 -14 0 -23 4 -20 8 7 11 46
12 46 1z m45 1 c3 -5 1 -10 -4 -10 -6 0 -11 5 -11 10 0 6 2 10 4 10 3 0 8 -4
11 -10z m305 -5 c0 -8 -4 -15 -10 -15 -5 0 -10 7 -10 15 0 8 5 15 10 15 6 0
10 -7 10 -15z m75 -25 c-3 -5 -10 -10 -16 -10 -5 0 -9 5 -9 10 0 6 7 10 16 10
8 0 12 -4 9 -10z m-55 -10 c0 -5 7 -10 15 -10 16 0 20 -16 6 -24 -5 -3 -16 5
-25 19 -9 14 -12 25 -6 25 5 0 10 -4 10 -10z m60 -40 c0 -5 -8 -10 -17 -10
-15 0 -16 2 -3 10 19 12 20 12 20 0z m-847 -7 c-7 -2 -19 -2 -25 0 -7 3 -2 5
12 5 14 0 19 -2 13 -5z m60 0 c-7 -2 -21 -2 -30 0 -10 3 -4 5 12 5 17 0 24 -2
18 -5z m74 1 c-3 -3 -12 -4 -19 -1 -8 3 -5 6 6 6 11 1 17 -2 13 -5z m203 -4
c0 -5 -4 -10 -10 -10 -5 0 -10 5 -10 10 0 6 5 10 10 10 6 0 10 -4 10 -10z
m455 0 c3 -6 -1 -7 -9 -4 -18 7 -21 14 -7 14 6 0 13 -4 16 -10z m1303 -155
c-4 -106 -3 -115 14 -115 10 0 18 -4 18 -10 0 -5 -12 -10 -26 -10 l-26 0 3
118 c2 64 5 120 7 125 11 24 14 -6 10 -108z m52 -20 c17 -21 5 -31 -15 -12 -8
9 -15 18 -15 21 0 11 18 6 30 -9z m27 -97 c-3 -7 -5 -2 -5 12 0 14 2 19 5 13
2 -7 2 -19 0 -25z m147 7 c3 -9 0 -15 -9 -15 -8 0 -15 7 -15 15 0 8 4 15 9 15
5 0 11 -7 15 -15z m306 -55 l0 -30 -70 0 c-63 0 -70 2 -70 20 0 24 4 25 35 4
34 -22 70 -15 69 14 0 15 5 22 18 22 13 0 18 -8 18 -30z m50 10 c0 -11 6 -20
14 -20 9 0 12 7 9 20 -4 16 0 20 21 20 24 0 27 -4 24 -27 -3 -26 -6 -28 -48
-27 -41 1 -45 3 -48 27 -2 19 1 27 12 27 9 0 16 -9 16 -20z m-355 -6 c13 -5
14 -8 3 -15 -19 -13 -28 -11 -28 6 0 17 2 18 25 9z m-185 -24 c0 -5 -13 -10
-30 -10 -16 0 -30 5 -30 10 0 6 14 10 30 10 17 0 30 -4 30 -10z m-409 -157 c3
-18 4 -35 1 -38 -3 -3 -40 -5 -83 -5 -73 0 -77 1 -81 24 -7 37 2 44 62 49 90
6 94 5 101 -30z m59 12 c0 -8 -4 -17 -10 -20 -6 -4 -10 5 -10 20 0 15 4 24 10
20 6 -3 10 -12 10 -20z m135 -12 l-1 -38 -59 -3 c-46 -1 -56 0 -42 8 16 11 25
33 10 28 -8 -3 -13 5 -13 23 0 5 5 7 10 4 6 -3 10 -1 10 4 0 6 19 11 43 11 42
0 42 0 42 -37z m53 9 c-1 -15 1 -33 6 -40 5 -8 0 -12 -13 -12 -18 0 -21 6 -21
40 0 29 4 40 15 40 11 0 15 -9 13 -28z m282 18 c0 -6 -11 -8 -27 -4 -40 10
-41 14 -5 14 18 0 32 -5 32 -10z m125 2 c6 -4 11 -26 12 -49 1 -32 -3 -43 -14
-43 -8 0 -12 4 -9 9 3 5 -5 16 -18 24 -22 15 -24 15 -19 -2 7 -29 -13 -34 -78
-20 -68 15 -76 26 -21 31 30 2 38 7 40 27 3 19 8 22 31 18 15 -3 33 -2 41 4
18 11 22 11 35 1z m-280 -22 c-4 -6 16 -10 52 -11 l58 -1 -60 -9 c-33 -5 -66
-7 -72 -4 -17 6 -5 35 14 35 8 0 11 -4 8 -10z m623 2 c7 -2 12 -22 12 -47 l0
-43 -87 5 c-156 7 -173 11 -173 38 0 55 4 57 124 54 61 -1 117 -5 124 -7z
m-943 -42 c3 -5 -1 -10 -9 -10 -9 0 -16 5 -16 10 0 6 4 10 9 10 6 0 13 -4 16
-10z m345 -16 c0 -2 -9 -4 -21 -4 -11 0 -18 4 -14 10 5 8 35 3 35 -6z m-405
-49 c0 -24 6 -32 30 -42 26 -10 14 -12 -80 -10 l-110 2 2 35 c0 19 1 39 2 43
1 4 36 7 79 5 l77 -3 0 -30z m191 19 c10 -8 13 -13 7 -9 -7 3 -13 2 -13 -4 0
-5 5 -11 11 -13 7 -2 9 -13 5 -26 -6 -18 -15 -22 -49 -22 l-43 0 4 39 c3 31 9
41 25 44 12 2 25 5 28 6 3 0 14 -6 25 -15z m54 -24 c0 -16 5 -30 10 -30 6 0
10 -4 10 -10 0 -5 -11 -10 -25 -10 -22 0 -25 4 -25 40 0 29 4 40 15 40 10 0
15 -10 15 -30z m144 21 c3 -5 -4 -11 -17 -15 -21 -6 -21 -6 7 -21 36 -19 55
-19 62 0 4 9 19 15 40 15 19 0 34 5 34 10 0 6 5 10 10 10 6 0 10 -7 10 -15 0
-8 -7 -15 -16 -15 -12 0 -15 -7 -11 -26 l4 -25 -81 5 c-44 3 -82 5 -83 5 -2 1
-3 14 -3 29 0 38 30 67 44 43z m-324 -21 c0 -11 -4 -20 -10 -20 -5 0 -10 9
-10 20 0 11 5 20 10 20 6 0 10 -9 10 -20z m841 -17 c14 -12 17 -12 22 1 5 12
15 14 39 9 42 -8 40 -5 42 -48 l1 -37 -90 7 c-49 4 -93 12 -97 19 -6 8 -10 8
-15 0 -5 -7 -19 -11 -33 -10 -27 1 -36 22 -26 61 6 22 9 23 73 18 38 -3 75
-12 84 -20z m-225 -5 c-3 -13 -6 -29 -6 -35 0 -9 -17 -13 -50 -13 -49 0 -50 1
-50 29 0 34 9 39 69 40 40 1 43 -1 37 -21z m-696 -88 c4 -26 11 -36 30 -41 14
-4 -20 -7 -75 -6 -108 2 -115 6 -101 63 6 24 10 25 74 22 l67 -3 5 -35z m220
-10 c0 -43 -6 -46 -69 -34 -26 5 -31 11 -31 34 0 36 6 40 57 40 l43 0 0 -40z
m58 0 c3 -37 1 -40 -23 -40 -24 0 -26 3 -23 40 2 33 5 40 23 40 18 0 21 -7 23
-40z m330 29 l82 2 0 -47 0 -47 -162 7 c-90 4 -166 10 -170 12 -5 3 -8 24 -8
46 l0 41 88 -8 c48 -4 124 -6 170 -6z m295 -24 c57 -6 66 -9 56 -21 -6 -8 -22
-14 -34 -14 -12 0 -29 -7 -36 -16 -10 -12 -23 -14 -51 -10 -23 4 -38 2 -38 -4
0 -5 -9 -10 -20 -10 -18 0 -20 6 -18 46 l1 45 36 -5 c20 -3 67 -8 104 -11z
m-806 -21 c-3 -3 -12 -4 -19 -1 -8 3 -5 6 6 6 11 1 17 -2 13 -5z m-99 -66 c-2
-19 -10 -23 -48 -26 -94 -7 -59 -10 103 -11 148 -1 167 -3 167 -17 0 -15 -11
-16 -92 -10 -50 3 -133 6 -185 6 -55 0 -93 4 -93 10 0 6 8 10 18 10 16 1 16 2
-2 15 -11 8 -16 21 -13 30 5 11 23 15 77 15 68 0 71 -1 68 -22z m49 -4 c-3 -3
-12 -4 -19 -1 -8 3 -5 6 6 6 11 1 17 -2 13 -5z m610 0 c26 -5 29 -10 29 -42
-1 -21 -4 -39 -8 -42 -6 -5 -268 8 -305 16 -13 2 -23 12 -23 20 0 13 7 15 33
11 51 -9 192 -12 195 -4 7 21 -1 26 -30 21 -24 -4 -29 -3 -19 4 11 8 8 11 -15
15 -16 2 3 5 42 6 39 0 85 -2 101 -5z m-158 -20 c9 -8 -65 -2 -84 6 -13 6 -2
7 30 3 28 -3 52 -7 54 -9z m309 10 c28 -6 30 -9 21 -30 -11 -30 -10 -30 95
-39 116 -9 136 -14 136 -36 0 -22 11 -22 -165 -1 l-140 18 -3 33 c-6 59 1 66
56 55z m-538 -39 c0 -8 -9 -15 -20 -15 -11 0 -20 7 -20 15 0 8 9 15 20 15 11
0 20 -7 20 -15z m690 -5 c0 -5 -5 -10 -11 -10 -5 0 -7 5 -4 10 3 6 8 10 11 10
2 0 4 -4 4 -10z m-3137 -94 c56 -9 156 -44 197 -69 19 -12 70 -49 112 -84 58
-46 94 -67 144 -83 36 -11 74 -20 83 -20 10 0 21 -3 24 -7 13 -12 -15 -33 -44
-33 -16 0 -29 -5 -29 -11 0 -5 5 -7 10 -4 17 10 11 -3 -12 -30 -24 -28 -40
-33 -32 -10 4 8 1 15 -5 15 -6 0 -11 -7 -11 -15 0 -8 -7 -15 -15 -15 -8 0 -15
5 -15 11 0 5 -8 10 -17 9 -31 -3 -62 11 -56 26 3 8 0 14 -6 14 -6 0 -11 7 -11
15 0 8 -8 20 -18 26 -14 9 -18 21 -15 45 3 27 0 32 -12 28 -8 -4 -16 -1 -16 5
-3 26 -4 30 -11 37 -5 4 -8 1 -8 -7 0 -8 -3 -10 -8 -4 -22 31 -77 65 -103 65
-20 0 -28 4 -23 11 4 8 -1 9 -16 4 -15 -5 -20 -4 -16 4 4 6 2 11 -3 11 -6 0
-11 7 -11 15 0 8 -5 15 -11 15 -6 0 -8 -7 -5 -16 4 -11 1 -14 -12 -12 -9 2
-17 8 -17 15 0 6 -3 15 -7 18 -10 11 -258 18 -258 8 0 -4 -16 -8 -35 -8 -19 0
-35 3 -35 6 0 10 -84 -13 -92 -25 -4 -6 0 -17 9 -23 9 -7 12 -13 6 -13 -7 0
-15 5 -18 10 -3 6 -14 10 -23 10 -15 0 -15 -2 -2 -10 11 -7 3 -8 -26 -4 -35 5
-42 3 -56 -18 -9 -13 -14 -38 -12 -54 4 -39 21 -84 32 -84 4 0 14 -21 22 -47
13 -46 91 -142 115 -143 6 0 18 -9 28 -20 22 -25 19 -25 -41 5 -28 14 -65 25
-83 25 -41 0 -49 6 -76 50 -25 42 -57 191 -47 223 20 66 100 117 224 143 64
13 280 13 363 0z m2944 -48 c-3 -8 -6 -5 -6 6 -1 11 2 17 5 13 3 -3 4 -12 1
-19z m98 13 c3 -5 1 -12 -5 -16 -5 -3 -10 1 -10 9 0 18 6 21 15 7z m-3248 -7
c-3 -3 -12 -4 -19 -1 -8 3 -5 6 6 6 11 1 17 -2 13 -5z m2968 -4 c7 -11 -42
-26 -53 -16 -7 8 17 26 35 26 6 0 15 -4 18 -10z m-2885 -26 c0 -8 -5 -12 -10
-9 -6 4 -8 11 -5 16 9 14 15 11 15 -7z m1636 6 c8 0 14 -4 14 -8 0 -5 -13 -7
-30 -4 -16 2 -30 9 -30 14 0 6 7 7 16 4 9 -3 22 -6 30 -6z m1719 -68 c-12 -12
-113 -14 -120 -2 -10 16 -2 21 47 30 36 7 40 6 25 -5 -15 -10 -15 -14 -3 -18
18 -7 28 17 20 51 -5 21 -1 18 15 -12 11 -22 19 -42 16 -44z m-75 58 c0 -5
-12 -10 -27 -10 -19 0 -24 -3 -15 -9 11 -7 11 -9 -2 -14 -8 -3 -18 -2 -21 3
-3 5 -12 7 -20 3 -21 -7 -19 7 3 23 20 16 82 19 82 4z m-420 -20 c12 -8 11
-10 -7 -10 -13 0 -23 5 -23 10 0 13 11 13 30 0z m-2570 -30 c0 -5 -4 -10 -10
-10 -5 0 -10 5 -10 10 0 6 5 10 10 10 6 0 10 -4 10 -10z m2934 -6 c4 -9 4 -19
2 -22 -10 -9 -36 8 -36 23 0 20 26 19 34 -1z m-754 -22 l85 -7 3 -57 c2 -32 1
-58 -3 -58 -3 0 -94 -16 -202 -35 -108 -19 -199 -32 -202 -29 -6 6 -3 136 5
174 l5 25 112 -3 c62 -2 150 -7 197 -10z m354 -6 c122 -4 145 -10 146 -37 0
-3 -53 -13 -117 -23 -65 -10 -136 -22 -157 -27 -22 -4 -42 -6 -45 -4 -4 2 -4
26 -3 54 4 46 6 50 25 46 12 -3 80 -7 151 -9z m-4370 -92 c9 -22 8 -24 -9 -24
-8 0 -15 9 -15 20 0 24 15 27 24 4z m4844 -31 c-10 -2 -26 -2 -35 0 -10 3 -2
5 17 5 19 0 27 -2 18 -5z m-1435 -70 c-7 -2 -19 -2 -25 0 -7 3 -2 5 12 5 14 0
19 -2 13 -5z m15 -149 c-11 -11 -23 -14 -39 -8 -24 8 -23 8 6 15 47 11 50 10
33 -7z m249 -86 c-3 -8 -6 -5 -6 6 -1 11 2 17 5 13 3 -3 4 -12 1 -19z m-1757
-41 c14 -2 51 -8 83 -12 34 -4 56 -12 54 -18 -3 -11 -26 -16 -227 -51 -52 -9
-117 -20 -145 -26 -27 -5 -65 -12 -84 -15 -19 -3 -39 -8 -44 -12 -17 -10 -100
-4 -114 9 -7 7 -14 29 -15 48 l-3 35 130 22 c87 15 153 21 200 18 50 -3 66 -1
55 6 -14 10 30 8 110 -4z m-725 -77 c-27 -12 -43 -12 -25 0 8 5 22 9 30 9 10
0 8 -3 -5 -9z m3775 -10 c12 -8 11 -10 -7 -10 -13 0 -23 5 -23 10 0 13 11 13
30 0z m-3877 -7 c-7 -2 -19 -2 -25 0 -7 3 -2 5 12 5 14 0 19 -2 13 -5z m3924
1 c-3 -3 -12 -4 -19 -1 -8 3 -5 6 6 6 11 1 17 -2 13 -5z m-4057 -24 c-14 -4
-38 -8 -55 -8 l-30 0 30 8 c17 4 41 8 55 8 l25 0 -25 -8z m1579 -4 c-10 -8
-119 -14 -119 -5 0 5 28 9 62 9 34 0 59 -2 57 -4z m-219 -15 c0 -6 -4 -13 -10
-16 -5 -3 -10 1 -10 9 0 9 5 16 10 16 6 0 10 -4 10 -9z m80 5 c0 -2 -7 -6 -15
-10 -8 -3 -15 -1 -15 4 0 6 7 10 15 10 8 0 15 -2 15 -4z m2650 -26 c0 -13 -20
-13 -40 0 -12 8 -9 10 13 10 15 0 27 -4 27 -10z m-153 -82 c-3 -7 -5 -2 -5 12
0 14 2 19 5 13 2 -7 2 -19 0 -25z m-4322 -4 c58 -15 112 -23 128 -20 20 4 27
2 24 -7 -2 -6 -9 -12 -14 -12 -6 0 -14 -3 -18 -7 -4 -4 -13 -4 -20 -2 -7 3
-16 1 -19 -5 -4 -6 -13 -8 -21 -4 -8 3 -15 1 -15 -4 0 -5 -8 -9 -17 -10 -44
-2 -141 -15 -171 -23 -19 -5 -40 -6 -48 -3 -8 3 -14 1 -14 -3 0 -5 -23 -10
-52 -11 -28 -2 -54 -6 -57 -10 -3 -5 -22 -8 -41 -9 -47 -2 -93 -7 -103 -12 -4
-2 -32 -5 -61 -7 -48 -3 -55 -1 -60 18 -9 33 -7 57 4 57 6 0 9 -5 8 -11 -2 -6
9 -12 23 -13 17 -1 25 3 22 10 -3 8 3 11 19 8 l23 -5 -23 10 c-12 6 -22 15
-22 21 0 6 4 9 9 6 5 -4 11 -2 13 3 1 5 24 12 50 15 26 3 60 9 74 12 21 5 25
4 20 -7 -4 -8 -1 -6 7 4 16 19 37 23 37 7 0 -18 30 -11 31 8 0 14 2 14 9 -3 7
-17 9 -17 9 -2 1 20 17 23 24 5 3 -7 6 -5 6 6 1 19 1 19 23 0 21 -18 21 -18
15 0 -6 16 -3 18 28 14 19 -2 35 0 35 4 0 13 31 9 135 -18z m4482 20 c-3 -3
-12 -4 -19 -1 -8 3 -5 6 6 6 11 1 17 -2 13 -5z m-4302 -44 c3 -5 1 -10 -4 -10
-6 0 -11 5 -11 10 0 6 2 10 4 10 3 0 8 -4 11 -10z m1272 -16 c-3 -3 -12 -4
-19 -1 -8 3 -5 6 6 6 11 1 17 -2 13 -5z m53 -30 c0 -2 -7 -4 -15 -4 -8 0 -15
4 -15 10 0 5 7 7 15 4 8 -4 15 -8 15 -10z m150 6 c18 -12 2 -12 -25 0 -13 6
-15 9 -5 9 8 0 22 -4 30 -9z m-2195 -10 c3 -5 1 -10 -4 -10 -6 0 -11 5 -11 10
0 6 2 10 4 10 3 0 8 -4 11 -10z m2032 -92 c-3 -8 -6 -5 -6 6 -1 11 2 17 5 13
3 -3 4 -12 1 -19z m-140 -4 c-3 -3 -12 -4 -19 -1 -8 3 -5 6 6 6 11 1 17 -2 13
-5z m108 -3 c-15 -6 -9 -9 28 -12 27 -3 47 0 47 6 0 15 20 -18 20 -34 0 -8 -6
-11 -15 -7 -8 3 -15 0 -15 -7 0 -8 -3 -8 -9 2 -5 8 -16 11 -24 8 -9 -3 -21 0
-27 8 -8 9 -19 11 -33 6 -20 -8 -82 1 -94 13 -4 3 4 6 16 6 12 0 19 4 16 10
-4 6 16 10 52 9 39 0 52 -3 38 -8z m3012 -17 c-3 -3 -12 -4 -19 -1 -8 3 -5 6
6 6 11 1 17 -2 13 -5z m-33 -20 c4 -11 14 -14 29 -11 12 3 40 8 62 11 40 6 40
6 -8 -9 -48 -16 -57 -41 -11 -32 12 2 40 1 61 -3 28 -6 11 -8 -62 -9 l-101 -1
-16 35 -16 35 28 0 c16 0 30 -7 34 -16z m-114 -10 c0 -8 -4 -12 -10 -9 -5 3
-10 10 -10 16 0 5 5 9 10 9 6 0 10 -7 10 -16z m332 4 c-9 -9 -15 -9 -24 0 -9
9 -7 12 12 12 19 0 21 -3 12 -12z m135 6 c-3 -3 -12 -4 -19 -1 -8 3 -5 6 6 6
11 1 17 -2 13 -5z m-462 -94 c3 -5 -1 -10 -9 -10 -9 0 -16 5 -16 10 0 6 4 10
9 10 6 0 13 -4 16 -10z m225 -10 c11 -7 1 -10 -35 -10 -36 0 -46 3 -35 10 8 5
24 10 35 10 11 0 27 -5 35 -10z m-70 -75 c0 -3 -9 -5 -20 -5 -11 0 -20 7 -20
15 0 13 4 14 20 5 11 -6 20 -13 20 -15z m80 -25 c-14 -4 -34 -8 -45 -8 -16 0
-15 2 5 8 14 4 34 8 45 8 16 0 15 -2 -5 -8z m253 3 c-7 -2 -19 -2 -25 0 -7 3
-2 5 12 5 14 0 19 -2 13 -5z m717 -223 c0 -5 -2 -10 -4 -10 -3 0 -8 5 -11 10
-3 6 -1 10 4 10 6 0 11 -4 11 -10z m-882 -9 c16 -10 -17 -21 -63 -21 l-30 1
25 14 c29 16 49 18 68 6z m117 -41 c3 -5 1 -10 -4 -10 -6 0 -11 5 -11 10 0 6
2 10 4 10 3 0 8 -4 11 -10z m-322 -97 c-7 -2 -21 -2 -30 0 -10 3 -4 5 12 5 17
0 24 -2 18 -5z m1277 -43 c0 -5 -18 -10 -40 -10 -22 0 -40 5 -40 10 0 6 18 10
40 10 22 0 40 -4 40 -10z m-60 -100 c0 -5 -4 -10 -10 -10 -5 0 -10 5 -10 10 0
6 5 10 10 10 6 0 10 -4 10 -10z m45 -29 c18 -7 17 -8 -7 -14 -29 -8 -58 0 -58
14 0 11 37 11 65 0z m-5548 -8 c-8 -7 -77 -6 -85 2 -3 3 16 5 43 5 27 0 45 -3
42 -7z m5969 -12 c-8 -12 -46 -21 -46 -11 0 5 10 11 23 13 12 2 23 5 25 6 2 0
1 -3 -2 -8z m-59 -7 c-3 -3 -12 -4 -19 -1 -8 3 -5 6 6 6 11 1 17 -2 13 -5z
m-327 -34 c20 -6 14 -8 -28 -9 -33 -1 -51 3 -47 9 7 12 39 12 75 0z m-5543
-16 c-3 -3 -12 -4 -19 -1 -8 3 -5 6 6 6 11 1 17 -2 13 -5z m88 -4 c-3 -5 -12
-10 -18 -10 -7 0 -6 4 3 10 19 12 23 12 15 0z m5782 -16 c-3 -3 -12 -4 -19 -1
-8 3 -5 6 6 6 11 1 17 -2 13 -5z m-245 -19 c0 -5 -5 -11 -11 -13 -6 -2 -11 4
-11 13 0 9 5 15 11 13 6 -2 11 -8 11 -13z m-6272 -68 c11 -5 9 -6 -4 -4 -11 1
-21 9 -23 17 -3 10 -2 11 4 4 4 -6 15 -14 23 -17z m6117 -3 c-3 -3 -12 -4 -19
-1 -8 3 -5 6 6 6 11 1 17 -2 13 -5z m133 -14 c0 -15 -7 -20 -25 -20 -29 0 -32
8 -7 26 24 19 32 17 32 -6z m99 -16 c20 -10 42 -13 62 -9 23 5 30 4 24 -5 -12
-19 -155 0 -155 21 0 14 33 11 69 -7z m-74 -34 c3 -5 -1 -10 -9 -10 -9 0 -16
5 -16 10 0 6 4 10 9 10 6 0 13 -4 16 -10z m-5995 -50 c0 -6 -16 -8 -42 -4 -59
9 -60 14 -5 14 26 0 47 -5 47 -10z m-95 -20 c13 -6 15 -9 5 -9 -8 0 -22 4 -30
9 -18 12 -2 12 25 0z m-168 -85 c-15 -16 -19 -13 -11 9 3 9 10 13 15 10 5 -3
3 -11 -4 -19z m136 -12 c-13 -2 -33 -2 -45 0 -13 2 -3 4 22 4 25 0 35 -2 23
-4z m-66 -19 c-3 -3 -12 -4 -19 -1 -8 3 -5 6 6 6 11 1 17 -2 13 -5z m6754 -95
c11 -5 17 -14 14 -19 -6 -10 -45 9 -45 22 0 11 8 10 31 -3z m-587 -43 c-5 -12
-92 -27 -148 -25 -21 0 -21 1 -1 9 11 5 36 9 55 10 19 0 46 7 60 14 28 16 42
12 34 -8z m594 -2 c11 -12 7 -14 -30 -13 -33 0 -38 2 -23 9 18 8 18 9 -5 9
-20 1 -22 3 -10 11 17 11 48 4 68 -16z m-103 6 c18 -8 17 -9 -7 -9 -16 -1 -28
4 -28 9 0 12 8 12 35 0z m-6704 -48 c6 -46 4 -52 -26 -68 -11 -6 -27 -25 -36
-43 l-17 -32 -12 63 c-19 99 -20 120 -5 114 7 -2 26 -1 42 4 41 12 47 8 54
-38z m6029 24 c0 -2 -21 -9 -47 -15 -27 -6 -58 -13 -70 -17 -17 -5 -23 -2 -23
9 0 9 8 18 18 20 22 6 122 8 122 3z m968 -71 c20 -42 13 -52 -13 -20 -28 34
-31 45 -12 45 8 0 19 -11 25 -25z m192 -9 c0 -3 -4 -8 -10 -11 -5 -3 -10 -1
-10 4 0 6 5 11 10 11 6 0 10 -2 10 -4z m-1275 -66 c-16 -4 -48 -7 -70 -7 l-40
0 45 7 c25 4 56 7 70 7 22 1 21 0 -5 -7z m-26 -36 c2 -2 -22 -4 -55 -3 -40 0
-53 3 -39 8 18 8 84 4 94 -5z m-5936 -29 c4 -8 2 -17 -3 -20 -6 -4 -10 3 -10
14 0 25 6 27 13 6z m5885 -37 c-19 -33 -28 -38 -73 -38 -22 0 -57 -3 -77 -6
-30 -5 -38 -3 -38 9 0 19 17 25 88 33 32 4 64 10 72 15 30 17 41 11 28 -13z
m32 -2 c0 -3 -4 -8 -10 -11 -5 -3 -10 -1 -10 4 0 6 5 11 10 11 6 0 10 -2 10
-4z m-397 -143 c-13 -2 -33 -2 -45 0 -13 2 -3 4 22 4 25 0 35 -2 23 -4z m2092
-51 c-7 -7 -44 32 -38 41 3 5 14 -1 24 -14 10 -13 16 -25 14 -27z m-2030 8
c-3 -5 -39 -10 -78 -10 -50 0 -67 3 -57 10 20 13 143 13 135 0z m-319 -10 c24
0 34 -5 34 -15 0 -11 -13 -15 -54 -15 -55 0 -81 15 -55 31 8 5 20 7 27 4 8 -3
29 -5 48 -5z m80 -139 c-3 -5 -15 -7 -26 -4 -28 7 -25 13 6 13 14 0 23 -4 20
-9z m-21 -52 c0 -8 12 -15 28 -17 l28 -3 -23 -18 c-15 -12 -43 -19 -80 -20
-52 -1 -58 1 -58 19 0 17 7 20 39 20 59 0 62 20 4 22 l-48 1 45 7 c56 9 65 7
65 -11z m-26 -93 c-11 -10 -49 -16 -49 -8 0 13 44 31 49 20 1 -5 1 -11 0 -12z
m-129 -36 c-19 -13 -30 -13 -30 0 0 6 10 10 23 10 18 0 19 -2 7 -10z m-122
-27 c-10 -2 -28 -2 -40 0 -13 2 -5 4 17 4 22 1 32 -1 23 -4z m-4934 -190 c34
-82 35 -113 1 -79 -20 19 -42 83 -48 135 -5 37 -4 41 8 25 7 -11 24 -47 39
-81z m5071 27 c-3 -5 -16 -10 -28 -9 -20 1 -20 2 3 9 14 4 26 8 28 9 2 1 0 -3
-3 -9z m248 -37 c-7 -2 -19 -2 -25 0 -7 3 -2 5 12 5 14 0 19 -2 13 -5z m1132
-23 c-27 -12 -43 -12 -25 0 8 5 22 9 30 9 10 0 8 -3 -5 -9z m-1345 -11 c0 -5
-19 -9 -42 -8 -32 0 -38 2 -23 8 27 11 65 11 65 0z m-80 -31 c0 -12 -82 -6
-87 7 -2 6 15 9 42 7 25 -2 45 -8 45 -14z m-85 -13 c23 -10 25 -13 10 -14 -11
0 -33 6 -50 14 -23 10 -25 13 -10 14 11 0 34 -6 50 -14z m275 -20 c0 -8 -8
-16 -17 -16 -41 -4 -49 -6 -76 -17 -33 -14 -107 -16 -107 -3 0 5 25 13 56 17
31 3 69 13 83 20 34 18 61 18 61 -1z m-370 -35 c-7 -13 -20 -20 -38 -19 l-27
1 28 11 c15 6 27 14 27 19 0 4 5 8 10 8 7 0 7 -6 0 -20z m435 10 c-28 -12 -47
-12 -40 0 3 6 18 10 33 9 24 0 25 -1 7 -9z m-3755 -36 c0 -17 -22 -14 -28 4
-2 7 3 12 12 12 9 0 16 -7 16 -16z m3275 -84 c3 -5 1 -10 -4 -10 -6 0 -11 5
-11 10 0 6 2 10 4 10 3 0 8 -4 11 -10z m-4422 -57 c-7 -2 -19 -2 -25 0 -7 3
-2 5 12 5 14 0 19 -2 13 -5z m4392 -3 c-3 -5 -12 -10 -20 -10 -8 0 -17 5 -20
10 -4 6 5 10 20 10 15 0 24 -4 20 -10z m135 -25 c0 -2 -10 -10 -22 -16 -21
-11 -22 -11 -9 4 13 16 31 23 31 12z m117 -21 c-3 -3 -12 -4 -19 -1 -8 3 -5 6
6 6 11 1 17 -2 13 -5z m513 -91 c2 -2 -2 -8 -10 -13 -10 -6 -16 -5 -19 3 -2 7
-9 16 -15 20 -6 5 0 5 14 1 14 -3 27 -8 30 -11z m-642 -7 c-24 -18 -23 -29 2
-21 15 5 20 2 20 -10 0 -11 5 -15 15 -11 8 3 15 1 15 -4 0 -14 -17 -12 -50 5
-17 9 -30 13 -30 9 0 -4 -7 -1 -15 6 -17 14 -20 30 -5 30 6 0 10 -8 11 -17 0
-14 2 -15 6 -3 7 17 23 30 38 30 6 -1 2 -7 -7 -14z m113 7 c-14 -3 -36 -12
-50 -21 -23 -16 -25 -16 -19 0 4 9 2 19 -5 22 -7 2 13 4 43 4 30 0 44 -3 31
-5z m154 -3 c-3 -5 -10 -10 -16 -10 -5 0 -9 5 -9 10 0 6 7 10 16 10 8 0 12 -4
9 -10z m315 1 c0 -5 -11 -11 -25 -13 -17 -4 -25 -1 -25 8 0 8 11 14 25 14 14
0 25 -4 25 -9z m-3893 -67 c-3 -3 -12 -4 -19 -1 -8 3 -5 6 6 6 11 1 17 -2 13
-5z m276 -1 c-7 -2 -19 -2 -25 0 -7 3 -2 5 12 5 14 0 19 -2 13 -5z m-1228 -13
c-3 -5 -16 -10 -28 -10 -18 0 -19 2 -7 10 20 13 43 13 35 0z m4580 -29 c3 -5
0 -13 -6 -16 -5 -4 -8 -13 -5 -21 3 -8 1 -14 -4 -14 -6 0 -10 14 -10 30 0 29
13 40 25 21z m245 -45 c0 -2 -7 -6 -15 -10 -8 -3 -15 -1 -15 4 0 6 7 10 15 10
8 0 15 -2 15 -4z m-176 -37 c-7 -12 -44 -12 -44 0 0 5 6 11 13 14 17 6 38 -3
31 -14z m-1126 -21 c4 -22 -34 -24 -61 -4 -18 14 -18 14 0 19 32 9 58 2 61
-15z m1092 -68 c0 -5 -2 -10 -4 -10 -3 0 -8 5 -11 10 -3 6 -1 10 4 10 6 0 11
-4 11 -10z m-3095 -30 c-3 -5 -12 -10 -18 -10 -7 0 -6 4 3 10 19 12 23 12 15
0z m1998 -10 c-3 -12 -8 -19 -11 -16 -5 6 5 36 12 36 2 0 2 -9 -1 -20z m-426
-7 c2 -6 -6 -14 -19 -18 -26 -8 -58 -39 -58 -55 0 -5 -10 -11 -22 -12 -13 0
-27 -2 -33 -3 -5 -2 -16 -3 -22 -4 -7 0 -13 -8 -13 -16 0 -10 -10 -15 -31 -15
-20 0 -29 -4 -27 -12 5 -15 -56 -58 -81 -58 -11 0 -21 -7 -25 -15 -3 -8 -1
-15 5 -15 6 0 7 -4 4 -10 -3 -5 -17 -10 -31 -10 -13 0 -24 5 -24 10 0 6 -4 10
-10 10 -5 0 -10 -8 -10 -18 0 -25 -49 -49 -62 -30 -7 10 -12 8 -25 -10 -10
-15 -26 -22 -47 -22 -24 0 -27 -3 -16 -10 8 -5 26 -10 40 -10 20 0 22 -2 10
-10 -8 -5 -39 -10 -67 -10 -40 0 -53 -4 -53 -15 0 -10 10 -15 32 -15 29 0 31
-2 17 -15 -21 -22 -118 -32 -129 -14 -7 11 -13 10 -29 -6 -19 -17 -20 -20 -6
-41 14 -22 14 -23 -20 -33 -22 -6 -48 -6 -67 -1 -17 5 -34 7 -38 5 -12 -7 -40
42 -34 58 3 10 -4 17 -20 21 -14 3 -26 11 -26 16 0 6 -7 10 -16 10 -26 0 -12
33 21 50 l30 15 -40 3 c-22 2 -46 9 -54 15 -11 9 -15 9 -18 0 -9 -25 -31 -13
-57 29 -14 24 -25 36 -26 27 0 -17 -80 -45 -80 -28 0 5 7 9 15 9 9 0 29 10 45
21 22 17 36 20 64 15 26 -5 36 -3 36 6 0 10 2 10 9 -1 12 -19 41 -6 41 17 0
11 7 25 15 32 13 10 15 9 15 -9 0 -11 -4 -21 -10 -21 -5 0 -10 -7 -10 -15 0
-12 18 -15 93 -17 109 -2 158 0 166 7 13 14 -18 40 -48 40 -24 0 -31 4 -31 19
0 19 -1 19 -22 -1 -40 -36 -71 -36 -113 -3 -25 20 -32 30 -21 30 9 0 29 8 43
17 19 13 28 14 31 5 4 -14 48 -16 57 -2 3 6 0 10 -7 10 -9 1 -9 3 2 9 22 12
110 22 110 12 0 -4 11 -6 25 -3 14 2 25 8 25 13 0 5 6 9 13 9 6 0 26 7 42 16
36 19 337 28 369 12 14 -7 17 -7 11 2 -11 19 15 30 69 30 46 0 48 -1 30 -15
-18 -14 -18 -14 6 -15 14 0 39 11 55 25 31 25 46 27 52 8z m383 -32 c0 -28 -3
-52 -7 -54 -5 -3 -32 -2 -60 0 -36 4 -53 10 -53 19 0 8 5 14 10 14 6 0 10 8
10 19 0 25 60 36 61 12 0 -9 5 -4 11 12 15 42 28 32 28 -22z m-2140 9 c0 -5
-6 -10 -14 -10 -8 0 -18 5 -21 10 -3 6 3 10 14 10 12 0 21 -4 21 -10z m2565
-40 c-3 -5 -11 -10 -16 -10 -6 0 -7 5 -4 10 3 6 11 10 16 10 6 0 7 -4 4 -10z
m54 -26 c15 -11 19 -20 13 -26 -15 -15 -52 1 -52 23 0 23 9 24 39 3z m176 -4
c-3 -5 -11 -10 -16 -10 -6 0 -7 5 -4 10 3 6 11 10 16 10 6 0 7 -4 4 -10z
m-355 -39 c0 -12 -90 -39 -107 -33 -22 7 -14 22 11 22 14 0 28 5 31 10 8 13
65 13 65 1z m-480 -18 c0 -5 -7 -17 -15 -27 -15 -19 -15 -19 -37 1 -13 12 -32
23 -43 26 -11 3 6 5 38 6 31 0 57 -2 57 -6z m-1220 -33 c0 -5 -4 -10 -10 -10
-5 0 -10 5 -10 10 0 6 5 10 10 10 6 0 10 -4 10 -10z m2600 0 c0 -5 -2 -10 -4
-10 -3 0 -8 5 -11 10 -3 6 -1 10 4 10 6 0 11 -4 11 -10z m-1140 -4 c0 -3 -4
-8 -10 -11 -5 -3 -10 -1 -10 4 0 6 5 11 10 11 6 0 10 -2 10 -4z m-462 -23 c2
-8 -5 -13 -17 -13 -12 0 -21 6 -21 16 0 18 31 15 38 -3z m-56 -10 c0 -10 1
-24 1 -30 -1 -7 3 -13 8 -13 5 0 9 -27 9 -60 0 -53 -2 -60 -20 -60 -11 0 -20
-4 -20 -10 0 -5 -7 -10 -16 -10 -22 0 -53 -32 -36 -38 25 -8 11 -22 -24 -22
-21 0 -33 4 -29 10 3 5 1 10 -4 10 -6 0 -11 -4 -11 -10 0 -5 -18 -10 -40 -10
-22 0 -40 5 -40 10 0 6 -8 5 -20 -2 -10 -7 -22 -9 -26 -5 -7 7 25 41 68 72 22
15 22 17 5 30 -11 7 -25 11 -33 8 -8 -3 -14 1 -14 10 0 8 -10 17 -22 21 -20 5
-21 7 -8 19 8 8 36 22 63 31 26 10 47 24 47 31 0 7 7 16 16 19 24 9 36 7 29
-4 -4 -6 9 -17 29 -25 42 -18 49 -19 41 -4 -7 11 22 49 37 49 4 0 9 -8 10 -17z
m198 7 c0 -5 -4 -10 -10 -10 -5 0 -10 5 -10 10 0 6 5 10 10 10 6 0 10 -4 10
-10z m-124 -46 c13 -3 24 -11 24 -16 0 -6 -7 -7 -16 -4 -9 3 -27 9 -40 12 -13
3 -24 11 -24 16 0 6 7 7 16 4 9 -3 27 -9 40 -12z m-3061 -55 c-8 -12 -35 -12
-35 0 0 11 22 20 33 14 4 -2 5 -9 2 -14z m3065 -29 c0 -36 -2 -40 -25 -40 -22
0 -25 4 -25 40 0 36 3 40 25 40 23 0 25 -4 25 -40z m260 15 c0 -8 -6 -15 -14
-15 -20 0 -29 17 -14 23 22 9 28 7 28 -8z m-260 -75 c12 -1 11 -3 -3 -11 -13
-7 -23 -6 -40 7 l-22 16 25 -6 c14 -3 32 -6 40 -6z m-80 -19 c0 -15 -28 -33
-40 -26 -8 5 -8 11 1 21 13 15 39 19 39 5z"/>
<path d="M6417 7433 c-15 -2 -25 -9 -21 -14 3 -6 -5 -7 -23 -4 -23 5 -25 4
-10 -5 23 -15 107 -3 107 16 0 8 -6 13 -12 13 -7 -1 -25 -4 -41 -6z"/>
<path d="M6275 7395 c-27 -8 -76 -19 -108 -26 -102 -19 -56 -18 58 1 61 11
117 20 125 20 13 0 13 1 0 10 -18 11 -12 12 -75 -5z"/>
<path d="M5995 7340 c3 -5 13 -10 21 -10 8 0 14 5 14 10 0 6 -9 10 -21 10 -11
0 -17 -4 -14 -10z"/>
<path d="M6053 7343 c9 -2 23 -2 30 0 6 3 -1 5 -18 5 -16 0 -22 -2 -12 -5z"/>
<path d="M5930 7330 c0 -4 -21 -11 -47 -14 -86 -12 -286 -56 -280 -62 3 -4
332 58 372 70 6 1 -2 5 -17 8 -16 3 -28 2 -28 -2z"/>
<path d="M5550 7251 c-8 -5 -34 -12 -58 -16 -24 -4 -41 -9 -39 -12 8 -7 127
19 127 28 0 11 -10 11 -30 0z"/>
<path d="M5365 7210 c-16 -4 -47 -8 -67 -9 -21 0 -38 -6 -38 -12 0 -12 18 -10
125 15 33 8 49 14 35 14 -14 0 -38 -4 -55 -8z"/>
<path d="M5185 7170 c-27 -7 -27 -8 -5 -8 14 0 36 4 50 8 20 6 21 8 5 8 -11 0
-33 -4 -50 -8z"/>
<path d="M5090 7150 l-25 -8 25 0 c14 0 34 3 45 8 l20 9 -20 -1 c-11 0 -31 -4
-45 -8z"/>
<path d="M4988 7123 c7 -3 16 -2 19 1 4 3 -2 6 -13 5 -11 0 -14 -3 -6 -6z"/>
<path d="M4928 7113 c6 -2 18 -2 25 0 6 3 1 5 -13 5 -14 0 -19 -2 -12 -5z"/>
<path d="M1448 6153 c6 -2 18 -2 25 0 6 3 1 5 -13 5 -14 0 -19 -2 -12 -5z"/>
<path d="M960 5709 c0 -5 5 -7 10 -4 6 3 10 8 10 11 0 2 -4 4 -10 4 -5 0 -10
-5 -10 -11z"/>
<path d="M820 5676 c0 -9 7 -16 16 -16 17 0 14 22 -4 28 -7 2 -12 -3 -12 -12z"/>
<path d="M790 5641 c0 -11 5 -23 10 -26 6 -3 10 3 10 14 0 11 -4 23 -10 26 -5
3 -10 -3 -10 -14z"/>
<path d="M850 5630 c0 -5 5 -10 10 -10 6 0 10 5 10 10 0 6 -4 10 -10 10 -5 0
-10 -4 -10 -10z"/>
<path d="M765 5601 c-3 -5 -1 -12 5 -16 5 -3 10 1 10 9 0 18 -6 21 -15 7z"/>
<path d="M820 5596 c0 -8 5 -18 10 -21 6 -3 10 3 10 14 0 12 -4 21 -10 21 -5
0 -10 -6 -10 -14z"/>
<path d="M790 5563 c0 -12 5 -25 10 -28 13 -8 13 15 0 35 -8 12 -10 11 -10 -7z"/>
<path d="M820 5510 c0 -5 5 -10 10 -10 6 0 10 5 10 10 0 6 -4 10 -10 10 -5 0
-10 -4 -10 -10z"/>
<path d="M850 5470 c0 -5 5 -10 10 -10 6 0 10 5 10 10 0 6 -4 10 -10 10 -5 0
-10 -4 -10 -10z"/>
<path d="M880 5440 c0 -5 5 -10 11 -10 5 0 7 5 4 10 -3 6 -8 10 -11 10 -2 0
-4 -4 -4 -10z"/>
<path d="M822 5429 c2 -6 8 -10 13 -10 5 0 11 4 13 10 2 6 -4 11 -13 11 -9 0
-15 -5 -13 -11z"/>
<path d="M800 5391 c0 -12 5 -21 10 -21 6 0 10 6 10 14 0 8 -4 18 -10 21 -5 3
-10 -3 -10 -14z"/>
<path d="M858 5393 c7 -3 16 -2 19 1 4 3 -2 6 -13 5 -11 0 -14 -3 -6 -6z"/>
<path d="M830 5356 c0 -9 5 -16 10 -16 6 0 10 4 10 9 0 6 -4 13 -10 16 -5 3
-10 -1 -10 -9z"/>
<path d="M810 5309 c0 -5 5 -7 10 -4 6 3 10 8 10 11 0 2 -4 4 -10 4 -5 0 -10
-5 -10 -11z"/>
<path d="M890 5291 c0 -5 5 -13 10 -16 6 -3 10 -2 10 4 0 5 -4 13 -10 16 -5 3
-10 2 -10 -4z"/>
<path d="M835 5280 c4 -6 11 -8 16 -5 14 9 11 15 -7 15 -8 0 -12 -5 -9 -10z"/>
<path d="M870 5240 c0 -5 5 -10 11 -10 5 0 7 5 4 10 -3 6 -8 10 -11 10 -2 0
-4 -4 -4 -10z"/>
<path d="M2733 6272 c-14 -9 -4 -61 12 -62 13 -1 19 50 8 61 -4 4 -14 5 -20 1z"/>
<path d="M2690 6100 c0 -5 5 -10 11 -10 5 0 7 5 4 10 -3 6 -8 10 -11 10 -2 0
-4 -4 -4 -10z"/>
<path d="M4927 5759 c-10 -6 -25 -8 -32 -5 -8 3 -17 1 -20 -4 -4 -6 12 -10 37
-10 24 0 53 -3 66 -6 16 -5 22 -2 22 10 0 9 -6 16 -14 16 -8 0 -20 2 -28 5 -7
2 -21 0 -31 -6z"/>
<path d="M4778 5563 c-2 -5 1 -27 7 -50 13 -52 30 -44 30 15 0 33 -3 42 -17
42 -9 0 -18 -3 -20 -7z"/>
<path d="M4047 5610 c-4 -16 0 -20 20 -20 19 0 24 4 19 16 -3 9 -6 18 -6 20 0
14 -29 0 -33 -16z"/>
<path d="M3830 5519 c0 -5 5 -7 10 -4 6 3 10 8 10 11 0 2 -4 4 -10 4 -5 0 -10
-5 -10 -11z"/>
<path d="M4441 5704 c0 -11 3 -14 6 -6 3 7 2 16 -1 19 -3 4 -6 -2 -5 -13z"/>
<path d="M4462 5644 c0 -29 5 -47 13 -50 10 -4 12 -21 9 -60 -3 -40 0 -54 9
-54 10 0 12 13 10 46 l-4 47 31 -6 c33 -7 36 -1 16 26 -10 13 -15 15 -18 5 -9
-25 -38 19 -38 56 0 23 -5 36 -13 36 -10 0 -14 -14 -15 -46z"/>
<path d="M4380 5521 c0 -5 5 -13 10 -16 6 -3 10 -2 10 4 0 5 -4 13 -10 16 -5
3 -10 2 -10 -4z"/>
<path d="M4430 5514 c0 -8 5 -12 10 -9 6 3 10 10 10 16 0 5 -4 9 -10 9 -5 0
-10 -7 -10 -16z"/>
<path d="M4560 5496 c0 -7 9 -16 20 -19 15 -4 20 0 20 14 0 12 -7 19 -20 19
-11 0 -20 -6 -20 -14z"/>
<path d="M4417 5473 c7 -17 18 -16 32 1 10 11 7 14 -12 12 -15 0 -23 -6 -20
-13z"/>
<path d="M4510 5446 c0 -19 17 -29 33 -19 6 4 22 6 35 4 15 -1 22 3 22 13 0
12 -11 16 -45 16 -33 0 -45 -4 -45 -14z"/>
<path d="M2932 5730 c0 -14 2 -19 5 -12 2 6 2 18 0 25 -3 6 -5 1 -5 -13z"/>
<path d="M2915 5660 c-3 -5 -1 -10 4 -10 6 0 11 5 11 10 0 6 -2 10 -4 10 -3 0
-8 -4 -11 -10z"/>
<path d="M4785 5130 c-3 -5 -1 -10 4 -10 6 0 11 5 11 10 0 6 -2 10 -4 10 -3 0
-8 -4 -11 -10z"/>
<path d="M4869 5111 c6 -10 7 -22 3 -26 -4 -5 -1 -5 6 -1 17 10 15 46 -3 46
-12 0 -13 -4 -6 -19z"/>
<path d="M4906 5123 c5 -5 12 -12 16 -18 4 -6 8 -2 8 8 0 9 -7 17 -17 17 -9 0
-12 -3 -7 -7z"/>
<path d="M4415 5020 c-3 -5 3 -10 15 -10 12 0 18 5 15 10 -3 6 -10 10 -15 10
-5 0 -12 -4 -15 -10z"/>
<path d="M218 3743 c7 -3 16 -2 19 1 4 3 -2 6 -13 5 -11 0 -14 -3 -6 -6z"/>
<path d="M5288 3163 c7 -3 16 -2 19 1 4 3 -2 6 -13 5 -11 0 -14 -3 -6 -6z"/>
<path d="M3883 466 c-26 -12 -30 -26 -8 -26 8 0 15 5 15 10 0 6 7 10 15 10 8
0 15 5 15 10 0 12 -8 11 -37 -4z"/>
<path d="M3830 443 c5 -2 10 -13 10 -24 0 -10 4 -19 10 -19 13 0 -4 43 -19 46
-6 1 -7 0 -1 -3z"/>
<path d="M3933 433 c9 -2 23 -2 30 0 6 3 -1 5 -18 5 -16 0 -22 -2 -12 -5z"/>
<path d="M3760 359 c0 -11 4 -18 10 -14 5 3 7 12 3 20 -7 21 -13 19 -13 -6z"/>
<path d="M4361 466 c-9 -11 -9 -16 0 -21 10 -7 28 10 29 28 0 12 -17 8 -29 -7z"/>
<path d="M98 7113 c7 -3 16 -2 19 1 4 3 -2 6 -13 5 -11 0 -14 -3 -6 -6z"/>
<path d="M588 4553 c7 -3 16 -2 19 1 4 3 -2 6 -13 5 -11 0 -14 -3 -6 -6z"/>
<path d="M4635 4190 c3 -5 8 -10 11 -10 2 0 4 5 4 10 0 6 -5 10 -11 10 -5 0
-7 -4 -4 -10z"/>
<path d="M3985 4171 c-15 -6 -10 -9 20 -9 51 -1 134 -10 143 -15 4 -3 16 -1
27 3 13 5 -8 10 -60 14 -44 4 -87 9 -95 11 -8 2 -24 0 -35 -4z"/>
<path d="M4660 4162 c0 -12 -6 -22 -12 -22 -9 0 -9 -3 -2 -8 19 -13 23 -41 8
-57 -9 -8 -19 -13 -24 -10 -4 3 -11 -2 -14 -11 -8 -22 -9 -21 21 -29 21 -5 24
-8 12 -16 -9 -6 -10 -9 -1 -9 6 0 12 -6 12 -13 0 -9 12 -11 43 -8 l42 4 -36 9
-36 9 -1 86 c0 46 -3 87 -6 91 -3 3 -6 -4 -6 -16z"/>
<path d="M4918 4163 c7 -3 16 -2 19 1 4 3 -2 6 -13 5 -11 0 -14 -3 -6 -6z"/>
<path d="M4378 4133 c7 -3 16 -2 19 1 4 3 -2 6 -13 5 -11 0 -14 -3 -6 -6z"/>
<path d="M3378 4123 c12 -2 32 -2 45 0 12 2 2 4 -23 4 -25 0 -35 -2 -22 -4z"/>
<path d="M3493 4123 c8 -7 119 -5 126 3 2 2 -26 4 -64 4 -38 0 -65 -3 -62 -7z"/>
<path d="M4483 4123 c9 -2 23 -2 30 0 6 3 -1 5 -18 5 -16 0 -22 -2 -12 -5z"/>
<path d="M4549 4119 c-10 -6 -7 -9 14 -9 29 0 35 5 14 13 -8 3 -20 1 -28 -4z"/>
<path d="M4634 4105 c3 -23 12 -26 13 -5 1 11 -2 20 -7 20 -4 0 -7 -7 -6 -15z"/>
<path d="M4691 4096 c11 -12 88 -23 100 -15 10 6 7 9 -11 10 -14 1 -40 3 -59
5 -19 2 -32 2 -30 0z"/>
<path d="M3383 4073 c15 -2 39 -2 55 0 15 2 2 4 -28 4 -30 0 -43 -2 -27 -4z"/>
<path d="M4825 4071 c6 -4 39 -11 75 -14 70 -6 46 6 -35 16 -28 4 -45 3 -40
-2z"/>
<path d="M4190 4050 c-11 -7 -5 -8 20 -4 43 8 51 14 19 14 -13 0 -31 -5 -39
-10z"/>
<path d="M4260 4049 c0 -5 11 -9 25 -9 14 0 25 2 25 4 0 2 -11 6 -25 8 -14 3
-25 1 -25 -3z"/>
<path d="M4380 4030 c20 -13 43 -13 35 0 -3 6 -16 10 -28 10 -18 0 -19 -2 -7
-10z"/>
<path d="M4265 4021 c7 -12 -25 -30 -42 -24 -7 3 -13 0 -13 -5 0 -5 9 -12 20
-15 11 -3 18 -1 14 4 -3 5 0 9 5 9 15 0 14 -37 -1 -43 -10 -4 -10 -8 0 -15 11
-7 11 -10 -2 -15 -23 -9 -20 -27 4 -27 17 0 20 7 20 53 0 58 11 84 30 72 9 -5
11 -4 6 3 -4 7 -16 12 -27 12 -11 0 -18 -4 -14 -9z"/>
<path d="M4415 4010 c-17 -19 -17 -20 44 -17 69 2 84 17 19 17 -32 0 -39 3
-28 10 13 8 13 10 -1 10 -9 0 -24 -9 -34 -20z"/>
<path d="M3758 4008 c-29 -10 -34 -23 -18 -48 9 -13 11 -13 19 0 9 13 11 13
15 0 3 -8 7 -31 10 -50 2 -19 3 -5 2 32 l-2 67 31 4 30 4 -30 1 c-16 0 -42 -4
-57 -10z"/>
<path d="M4550 4000 c-18 -12 -2 -12 25 0 13 6 15 9 5 9 -8 0 -22 -4 -30 -9z"/>
<path d="M3600 3980 c0 -5 18 -10 40 -10 22 0 40 5 40 10 0 6 -18 10 -40 10
-22 0 -40 -4 -40 -10z"/>
<path d="M5000 3980 c0 -5 5 -10 10 -10 6 0 10 5 10 10 0 6 -4 10 -10 10 -5 0
-10 -4 -10 -10z"/>
<path d="M4858 3973 c7 -3 16 -2 19 1 4 3 -2 6 -13 5 -11 0 -14 -3 -6 -6z"/>
<path d="M4652 3935 c0 -16 2 -22 5 -12 2 9 2 23 0 30 -3 6 -5 -1 -5 -18z"/>
<path d="M4211 3934 c0 -11 3 -14 6 -6 3 7 2 16 -1 19 -3 4 -6 -2 -5 -13z"/>
<path d="M4835 3940 c11 -5 27 -9 35 -9 9 0 8 4 -5 9 -11 5 -27 9 -35 9 -9 0
-8 -4 5 -9z"/>
<path d="M4262 3860 c0 -14 2 -19 5 -12 2 6 2 18 0 25 -3 6 -5 1 -5 -13z"/>
<path d="M2895 3810 l-40 -7 50 -1 c28 0 61 4 75 8 22 7 21 8 -10 8 -19 -1
-53 -4 -75 -8z"/>
<path d="M3707 3780 c-63 -12 -55 -21 16 -19 42 1 67 6 67 13 0 14 -31 16 -83
6z"/>
<path d="M2470 3716 c0 -8 -15 -17 -35 -20 -21 -4 -35 -13 -35 -21 0 -18 12
-19 27 -4 8 8 17 8 32 0 16 -9 21 -9 21 0 0 8 16 10 51 7 29 -3 45 -2 37 3 -7
5 -30 9 -50 9 -21 0 -38 5 -38 10 0 6 21 10 47 10 58 0 53 7 -10 14 -36 5 -47
3 -47 -8z"/>
<path d="M2628 3723 c12 -2 30 -2 40 0 9 3 -1 5 -23 4 -22 0 -30 -2 -17 -4z"/>
<path d="M2625 3670 c-3 -5 -1 -10 4 -10 6 0 11 5 11 10 0 6 -2 10 -4 10 -3 0
-8 -4 -11 -10z"/>
<path d="M3208 3643 c6 -2 18 -2 25 0 6 3 1 5 -13 5 -14 0 -19 -2 -12 -5z"/>
<path d="M4230 3630 c0 -6 7 -10 15 -10 8 0 15 2 15 4 0 2 -7 6 -15 10 -8 3
-15 1 -15 -4z"/>
<path d="M4395 3570 c-11 -5 -32 -9 -47 -9 -16 -1 -28 -5 -28 -10 0 -10 101 8
115 20 12 11 -13 11 -40 -1z"/>
<path d="M4465 3570 c-16 -7 -17 -9 -3 -9 9 -1 20 4 23 9 7 11 7 11 -20 0z"/>
<path d="M4538 3563 c7 -3 16 -2 19 1 4 3 -2 6 -13 5 -11 0 -14 -3 -6 -6z"/>
<path d="M4211 3542 c-1 -14 -10 -26 -23 -31 -32 -12 137 -5 185 7 57 15 59
25 4 20 -27 -3 -63 0 -85 8 -44 15 -75 19 -54 5 11 -7 11 -9 -2 -14 -9 -4 -16
1 -19 11 -3 12 -5 10 -6 -6z m59 -22 c0 -5 -2 -10 -4 -10 -3 0 -8 5 -11 10 -3
6 -1 10 4 10 6 0 11 -4 11 -10z"/>
<path d="M4632 3535 c-7 -9 -8 -15 -2 -15 5 0 10 -7 10 -15 0 -21 -24 -14 -32
10 -4 15 -6 12 -7 -12 -1 -29 2 -33 24 -33 23 0 25 4 25 40 0 45 0 45 -18 25z"/>
<path d="M2530 3520 c19 -13 30 -13 30 0 0 6 -10 10 -22 10 -19 0 -20 -2 -8
-10z"/>
<path d="M4230 3440 l-25 -8 28 -1 c15 -1 27 4 27 9 0 6 -1 10 -2 9 -2 -1 -14
-5 -28 -9z"/>
<path d="M4103 3433 c9 -2 23 -2 30 0 6 3 -1 5 -18 5 -16 0 -22 -2 -12 -5z"/>
<path d="M5040 3431 c0 -6 -17 -12 -37 -14 -34 -4 -33 -4 6 -3 26 1 46 6 49
14 2 6 -1 12 -7 12 -6 0 -11 -4 -11 -9z"/>
<path d="M3918 3423 c12 -2 32 -2 45 0 12 2 2 4 -23 4 -25 0 -35 -2 -22 -4z"/>
<path d="M1860 3292 c-89 -18 -105 -36 -23 -28 34 3 64 2 67 -2 7 -11 98 -4
110 8 6 6 19 10 30 10 12 0 16 4 11 9 -17 15 -127 17 -195 3z"/>
<path d="M2230 3280 c0 -5 4 -10 9 -10 6 0 13 5 16 10 3 6 -1 10 -9 10 -9 0
-16 -4 -16 -10z"/>
<path d="M2170 3245 c-13 -16 -8 -18 28 -9 12 4 22 10 22 15 0 15 -37 10 -50
-6z"/>
<path d="M1733 3183 c9 -2 25 -2 35 0 9 3 1 5 -18 5 -19 0 -27 -2 -17 -5z"/>
<path d="M2223 3163 c9 -2 25 -2 35 0 9 3 1 5 -18 5 -19 0 -27 -2 -17 -5z"/>
<path d="M2088 3153 c6 -2 18 -2 25 0 6 3 1 5 -13 5 -14 0 -19 -2 -12 -5z"/>
<path d="M1708 3090 c-72 -7 -87 -20 -23 -20 30 0 45 -4 40 -9 -6 -5 -62 -11
-127 -14 -121 -5 -138 -9 -138 -33 0 -9 11 -14 30 -14 19 0 30 -5 30 -14 0 -8
11 -13 28 -13 15 -1 41 -3 57 -7 38 -7 135 4 135 15 0 5 -30 9 -67 10 -38 1
-79 5 -93 10 -15 5 11 6 65 2 104 -8 103 -8 215 1 46 3 89 11 95 17 7 8 -3 10
-35 8 -25 -1 -61 -1 -80 0 l-35 2 29 12 c23 10 26 15 15 24 -24 19 -82 29
-141 23z m112 -30 c0 -5 -13 -10 -30 -10 -16 0 -30 5 -30 10 0 6 14 10 30 10
17 0 30 -4 30 -10z m-43 -26 c-3 -3 -12 -4 -19 -1 -8 3 -5 6 6 6 11 1 17 -2
13 -5z"/>
<path d="M1138 3083 c7 -3 16 -2 19 1 4 3 -2 6 -13 5 -11 0 -14 -3 -6 -6z"/>
<path d="M1600 3080 c0 -5 7 -10 16 -10 8 0 12 5 9 10 -3 6 -10 10 -16 10 -5
0 -9 -4 -9 -10z"/>
<path d="M1528 3073 c6 -2 18 -2 25 0 6 3 1 5 -13 5 -14 0 -19 -2 -12 -5z"/>
<path d="M3142 3060 c10 -6 25 -7 40 -1 20 9 18 10 -17 10 -31 0 -36 -2 -23
-9z"/>
<path d="M1890 3050 c0 -5 5 -10 10 -10 6 0 10 5 10 10 0 6 -4 10 -10 10 -5 0
-10 -4 -10 -10z"/>
<path d="M4130 3040 l-25 -8 28 -1 c15 -1 27 4 27 9 0 6 -1 10 -2 9 -2 -1 -14
-5 -28 -9z"/>
<path d="M4476 3039 c-83 -8 -106 -14 -95 -23 2 -2 33 0 69 5 36 5 112 13 170
17 l105 9 -80 0 c-44 0 -120 -4 -169 -8z"/>
<path d="M4943 3033 c9 -2 25 -2 35 0 9 3 1 5 -18 5 -19 0 -27 -2 -17 -5z"/>
<path d="M2088 3023 c7 -3 16 -2 19 1 4 3 -2 6 -13 5 -11 0 -14 -3 -6 -6z"/>
<path d="M2920 3010 c-24 -8 -23 -8 8 -9 17 -1 32 4 32 9 0 11 -5 11 -40 0z"/>
<path d="M4930 3010 c-12 -7 -10 -9 8 -7 12 0 22 5 22 9 0 11 -12 10 -30 -2z"/>
<path d="M5955 3010 c-3 -5 -1 -10 4 -10 6 0 11 5 11 10 0 6 -2 10 -4 10 -3 0
-8 -4 -11 -10z"/>
<path d="M4878 3003 c7 -3 16 -2 19 1 4 3 -2 6 -13 5 -11 0 -14 -3 -6 -6z"/>
<path d="M1043 2953 c-18 -7 -16 -20 2 -20 8 0 15 6 15 14 0 7 -1 13 -2 12 -2
0 -9 -3 -15 -6z"/>
<path d="M4960 2950 c0 -5 18 -10 40 -10 22 0 40 5 40 10 0 6 -18 10 -40 10
-22 0 -40 -4 -40 -10z"/>
<path d="M5070 2950 c0 -5 20 -10 45 -10 25 0 45 5 45 10 0 6 -20 10 -45 10
-25 0 -45 -4 -45 -10z"/>
<path d="M1890 2940 c0 -5 7 -10 15 -10 8 0 15 5 15 10 0 6 -7 10 -15 10 -8 0
-15 -4 -15 -10z"/>
<path d="M2560 2919 c0 -5 5 -7 10 -4 6 3 10 8 10 11 0 2 -4 4 -10 4 -5 0 -10
-5 -10 -11z"/>
<path d="M6065 2890 c3 -5 8 -10 11 -10 2 0 4 5 4 10 0 6 -5 10 -11 10 -5 0
-7 -4 -4 -10z"/>
<path d="M1621 2886 c12 -10 59 -15 59 -6 0 5 -14 10 -32 10 -17 0 -29 -2 -27
-4z"/>
<path d="M6110 2880 c-25 -8 -25 -8 8 -15 18 -4 35 -12 38 -16 10 -16 34 -9
34 10 0 11 -9 21 -22 25 -26 7 -25 7 -58 -4z"/>
<path d="M3293 2866 c-39 -6 -75 -15 -80 -20 -4 -5 5 -6 22 -3 17 3 59 9 95
12 36 3 72 10 80 15 19 12 -20 11 -117 -4z"/>
<path d="M5793 2863 c-13 -2 -23 -9 -23 -15 0 -6 12 -8 31 -4 17 3 40 6 50 6
11 0 19 5 19 10 0 10 -34 11 -77 3z"/>
<path d="M5410 2850 c-19 -4 -152 -11 -295 -14 -143 -3 -307 -12 -365 -20 -58
-8 -141 -17 -185 -21 -44 -3 -129 -12 -190 -20 -60 -8 -171 -17 -245 -21 -74
-3 -144 -10 -155 -15 -21 -9 48 -6 290 12 72 5 263 14 425 19 266 9 336 15
608 54 23 3 35 0 39 -10 8 -21 56 -17 108 8 70 34 53 48 -35 28z"/>
<path d="M3040 2840 c0 -6 -11 -8 -25 -4 -14 3 -25 2 -25 -4 0 -16 36 -21 77
-11 21 5 58 12 82 15 72 8 60 14 -27 14 -49 0 -82 -4 -82 -10z"/>
<path d="M2914 2824 c-17 -14 -17 -15 -1 -10 10 3 25 6 33 6 8 0 14 5 14 10 0
15 -24 12 -46 -6z"/>
<path d="M2850 2810 c0 -5 7 -10 16 -10 8 0 12 5 9 10 -3 6 -10 10 -16 10 -5
0 -9 -4 -9 -10z"/>
<path d="M2600 2798 c-21 -9 -22 -12 -7 -15 23 -6 47 3 47 17 0 12 -8 12 -40
-2z"/>
<path d="M2968 2783 c7 -3 16 -2 19 1 4 3 -2 6 -13 5 -11 0 -14 -3 -6 -6z"/>
<path d="M1471 2701 c-11 -7 -11 -9 0 -13 19 -6 49 2 49 13 0 11 -31 11 -49 0z"/>
<path d="M3170 2696 c0 -9 30 -14 35 -6 4 6 -3 10 -14 10 -12 0 -21 -2 -21 -4z"/>
<path d="M7020 2690 c0 -5 5 -10 10 -10 6 0 10 -6 10 -14 0 -8 7 -16 15 -20
20 -7 18 4 -4 32 -21 24 -31 28 -31 12z"/>
<path d="M975 2660 c-3 -5 3 -10 14 -10 11 0 23 5 26 10 3 6 -3 10 -14 10 -11
0 -23 -4 -26 -10z"/>
<path d="M853 2653 c9 -2 23 -2 30 0 6 3 -1 5 -18 5 -16 0 -22 -2 -12 -5z"/>
<path d="M4963 2628 c-111 -48 -136 -62 -141 -77 -4 -11 1 -12 19 -6 13 4 47
12 74 19 39 9 155 70 155 81 0 2 -9 5 -19 8 -11 3 -50 -9 -88 -25z"/>
<path d="M5985 2650 c-3 -5 -1 -10 4 -10 6 0 11 5 11 10 0 6 -2 10 -4 10 -3 0
-8 -4 -11 -10z"/>
<path d="M2578 2643 c7 -3 16 -2 19 1 4 3 -2 6 -13 5 -11 0 -14 -3 -6 -6z"/>
<path d="M2170 2630 c0 -5 7 -10 15 -10 8 0 15 5 15 10 0 6 -7 10 -15 10 -8 0
-15 -4 -15 -10z"/>
<path d="M5803 2633 c9 -2 23 -2 30 0 6 3 -1 5 -18 5 -16 0 -22 -2 -12 -5z"/>
<path d="M5863 2633 c9 -2 25 -2 35 0 9 3 1 5 -18 5 -19 0 -27 -2 -17 -5z"/>
<path d="M2767 2618 c-7 -4 16 -8 50 -8 34 0 65 5 68 10 7 12 -99 10 -118 -2z"/>
<path d="M5680 2620 c0 -5 6 -10 14 -10 8 0 18 5 21 10 3 6 -3 10 -14 10 -12
0 -21 -4 -21 -10z"/>
<path d="M2539 2609 c-42 -4 -82 -10 -88 -14 -7 -4 -19 -1 -27 6 -10 8 -18 9
-22 2 -8 -11 -211 -11 -230 1 -6 4 -12 3 -12 -2 0 -6 -17 -8 -40 -5 -26 4 -40
2 -40 -5 0 -13 34 -23 70 -20 14 1 40 1 59 0 30 -2 32 -4 20 -19 -13 -15 -12
-16 6 -8 11 4 61 12 110 16 50 4 130 15 179 24 48 9 99 14 111 11 13 -3 26 -2
29 3 8 13 -39 17 -125 10z"/>
<path d="M2710 2610 c-12 -8 -9 -10 13 -10 15 0 27 5 27 10 0 13 -20 13 -40 0z"/>
<path d="M4395 2605 c-49 -7 -117 -14 -149 -14 -33 -1 -56 -4 -53 -8 12 -12
122 -11 130 1 6 7 7 6 4 -4 -3 -11 -25 -17 -82 -21 -42 -4 -80 -11 -84 -16 -9
-15 -139 -23 -144 -9 -3 7 -10 5 -23 -6 -27 -23 -163 -50 -201 -39 -17 5 -36
5 -44 0 -8 -5 -23 -6 -34 -3 -15 4 -16 3 -6 -4 17 -13 -1 -23 -19 -11 -24 14
-33 11 -27 -11 4 -16 2 -20 -12 -15 -20 6 -51 -3 -51 -15 0 -4 12 -5 28 -3 26
4 26 4 7 -12 -19 -15 -21 -14 -37 5 -10 12 -29 20 -50 21 -25 0 -28 2 -14 8
17 6 16 9 -9 25 -16 10 -38 16 -54 14 -33 -6 -86 4 -82 16 4 13 -20 25 -43 20
-12 -2 -39 -11 -61 -19 l-40 -14 38 -1 c51 0 47 -13 -10 -29 l-48 -14 34 -7
c18 -5 45 -4 60 0 47 15 140 18 145 4 6 -14 -6 -25 -51 -48 -37 -19 -62 -24
-188 -37 -49 -5 -110 -16 -134 -24 -25 -8 -75 -15 -111 -15 -70 0 -130 -15
-130 -32 0 -10 18 -9 255 18 72 9 175 19 230 24 144 12 185 20 185 36 0 8 11
13 28 13 15 0 46 0 69 0 23 0 44 5 48 11 3 5 38 10 76 10 55 0 69 3 67 14 -2
8 2 15 7 15 6 1 10 -5 10 -11 0 -7 7 -13 15 -14 8 -1 26 -2 39 -2 20 -2 22 -4
10 -18 -12 -15 -10 -16 29 -10 23 3 60 9 82 12 22 3 40 10 40 16 0 6 -13 8
-34 4 -21 -4 -37 -2 -41 4 -5 8 25 10 98 8 58 -1 109 0 112 4 15 14 -8 30 -36
24 -31 -6 -40 8 -12 18 15 6 15 7 0 19 -11 8 -14 17 -8 26 7 11 13 9 30 -8 11
-11 27 -21 35 -21 7 0 19 -6 25 -14 8 -10 24 -13 49 -10 60 8 137 26 142 34 7
9 88 45 130 58 l35 10 -40 1 c-22 1 -47 6 -55 12 -13 9 -12 10 3 5 9 -3 25 -2
35 1 14 6 13 8 -8 14 -24 7 -24 7 -2 8 12 1 22 6 22 11 0 12 -7 11 -125 -5z
m25 -20 c10 -12 10 -15 -4 -15 -9 0 -16 7 -16 15 0 8 2 15 4 15 2 0 9 -7 16
-15z m-160 -99 c0 -2 -7 -6 -15 -10 -8 -3 -15 -1 -15 4 0 6 7 10 15 10 8 0 15
-2 15 -4z m-490 -36 c0 -15 -6 -20 -27 -19 -23 1 -24 2 -6 6 14 3 20 9 16 19
-3 8 0 14 6 14 6 0 11 -9 11 -20z m157 -6 c-3 -3 -12 -4 -19 -1 -8 3 -5 6 6 6
11 1 17 -2 13 -5z m-347 -33 c0 -13 -30 -22 -43 -14 -7 4 -2 10 13 14 14 4 26
7 28 8 1 1 2 -3 2 -8z"/>
<path d="M4560 2608 c0 -5 18 -8 40 -8 22 0 40 2 40 4 0 2 -18 6 -40 8 -22 2
-40 0 -40 -4z"/>
<path d="M5568 2613 c6 -2 18 -2 25 0 6 3 1 5 -13 5 -14 0 -19 -2 -12 -5z"/>
<path d="M7044 2582 c-1 -20 1 -29 3 -19 3 9 11 17 19 17 20 0 18 17 -4 29
-16 8 -18 5 -18 -27z"/>
<path d="M6208 2603 c6 -2 18 -2 25 0 6 3 1 5 -13 5 -14 0 -19 -2 -12 -5z"/>
<path d="M1980 2580 c-12 -8 -9 -10 13 -10 16 0 26 4 22 10 -8 12 -16 12 -35
0z"/>
<path d="M1549 2569 c-10 -6 -7 -9 14 -9 29 0 35 5 14 13 -8 3 -20 1 -28 -4z"/>
<path d="M1865 2569 c-11 -17 1 -21 15 -4 8 9 8 15 2 15 -6 0 -14 -5 -17 -11z"/>
<path d="M7080 2550 c0 -11 5 -20 10 -20 6 0 10 9 10 20 0 11 -4 20 -10 20 -5
0 -10 -9 -10 -20z"/>
<path d="M5585 2550 c-14 -6 -4 -9 38 -9 32 -1 57 3 57 9 0 12 -67 12 -95 0z"/>
<path d="M1910 2535 c-36 -7 -68 -11 -72 -9 -4 2 -9 1 -12 -4 -8 -13 43 -17
167 -14 58 2 77 5 77 16 0 7 -14 16 -31 20 -39 7 -48 7 -129 -9z"/>
<path d="M2562 2540 c-108 -10 -117 -20 -16 -20 98 0 161 10 142 21 -7 5 -20
8 -28 7 -8 0 -52 -4 -98 -8z"/>
<path d="M4765 2530 c-3 -5 -14 -10 -25 -10 -14 0 -30 -18 -30 -34 0 -1 14 -1
30 2 17 2 30 8 30 12 0 4 9 10 21 13 12 3 18 10 14 16 -8 14 -32 14 -40 1z"/>
<path d="M880 2520 c0 -5 13 -10 29 -10 17 0 33 5 36 10 4 6 -8 10 -29 10 -20
0 -36 -4 -36 -10z"/>
<path d="M3448 2518 c-8 -5 4 -8 30 -8 23 0 42 4 42 8 0 11 -55 11 -72 0z"/>
<path d="M1060 2506 c0 -8 5 -18 10 -21 6 -3 10 3 10 14 0 12 -4 21 -10 21 -5
0 -10 -6 -10 -14z"/>
<path d="M1096 2505 c-3 -8 -1 -15 4 -15 6 0 10 7 10 15 0 8 -2 15 -4 15 -2 0
-6 -7 -10 -15z"/>
<path d="M1020 2490 c-22 -6 -23 -8 -7 -15 11 -4 23 -3 30 4 15 15 7 19 -23
11z"/>
<path d="M3553 2483 c9 -2 23 -2 30 0 6 3 -1 5 -18 5 -16 0 -22 -2 -12 -5z"/>
<path d="M7091 2465 c-13 -14 -18 -25 -11 -25 15 0 42 28 38 40 -2 5 -14 -2
-27 -15z"/>
<path d="M6980 2470 c0 -5 5 -10 10 -10 6 0 10 5 10 10 0 6 -4 10 -10 10 -5 0
-10 -4 -10 -10z"/>
<path d="M4584 2439 c-3 -5 2 -11 10 -14 9 -3 23 -7 31 -10 8 -2 15 -1 15 4 0
4 10 13 23 18 19 9 15 11 -25 11 -27 0 -50 -4 -54 -9z"/>
<path d="M2448 2435 c-2 -3 -145 -6 -316 -7 -210 -2 -311 -6 -309 -13 3 -7
106 -9 313 -6 276 3 354 9 354 26 0 6 -35 7 -42 0z"/>
<path d="M0 2420 c0 -5 6 -10 14 -10 8 0 18 5 21 10 3 6 -3 10 -14 10 -12 0
-21 -4 -21 -10z"/>
<path d="M5135 2420 c3 -5 15 -10 25 -10 10 0 22 5 25 10 4 6 -7 10 -25 10
-18 0 -29 -4 -25 -10z"/>
<path d="M4517 2403 c-16 -8 -26 -17 -24 -20 10 -9 98 10 94 21 -5 16 -38 16
-70 -1z"/>
<path d="M6965 2390 c-3 -5 1 -10 9 -10 9 0 16 5 16 10 0 6 -4 10 -9 10 -6 0
-13 -4 -16 -10z"/>
<path d="M640 2381 c0 -5 9 -7 20 -4 11 3 20 7 20 9 0 2 -9 4 -20 4 -11 0 -20
-4 -20 -9z"/>
<path d="M1826 2383 c-16 -16 -1 -20 52 -16 31 3 72 5 90 5 17 0 32 3 32 8 0
10 -164 13 -174 3z"/>
<path d="M6240 2380 c0 -5 18 -10 40 -10 22 0 40 -4 40 -10 0 -17 14 -11 28
10 12 19 10 20 -48 20 -33 0 -60 -4 -60 -10z"/>
<path d="M6160 2360 c0 -17 7 -20 40 -20 22 0 40 5 40 10 0 6 -11 10 -24 10
-14 0 -28 5 -31 10 -10 17 -25 11 -25 -10z"/>
<path d="M3783 2363 c-41 -4 -54 -15 -34 -28 5 -3 12 -1 16 5 3 5 22 10 41 10
19 0 34 5 34 10 0 6 -3 9 -7 8 -5 -1 -27 -3 -50 -5z"/>
<path d="M7288 2363 c7 -3 16 -2 19 1 4 3 -2 6 -13 5 -11 0 -14 -3 -6 -6z"/>
<path d="M1965 2351 c-3 -5 -18 -9 -33 -9 -37 1 -92 -12 -92 -22 0 -11 94 -18
98 -8 2 4 16 8 31 8 20 0 27 5 27 20 0 20 -20 27 -31 11z"/>
<path d="M695 2342 c-46 -5 -55 -22 -11 -20 20 1 39 5 42 10 8 13 4 14 -31 10z"/>
<path d="M745 2340 c3 -5 8 -10 11 -10 2 0 4 5 4 10 0 6 -5 10 -11 10 -5 0 -7
-4 -4 -10z"/>
<path d="M888 2343 c6 -2 18 -2 25 0 6 3 1 5 -13 5 -14 0 -19 -2 -12 -5z"/>
<path d="M2195 2340 c-8 -13 15 -13 35 0 12 8 11 10 -7 10 -12 0 -25 -4 -28
-10z"/>
<path d="M585 2330 c3 -5 17 -10 31 -10 13 0 24 5 24 10 0 6 -14 10 -31 10
-17 0 -28 -4 -24 -10z"/>
<path d="M7338 2293 c7 -3 16 -2 19 1 4 3 -2 6 -13 5 -11 0 -14 -3 -6 -6z"/>
<path d="M2668 2282 c-16 -2 -28 -8 -28 -13 0 -11 88 -11 115 1 l20 9 -20 1
c-11 1 -29 2 -40 3 -11 1 -32 1 -47 -1z"/>
<path d="M5395 2270 c-3 -5 1 -10 9 -10 9 0 16 5 16 10 0 6 -4 10 -9 10 -6 0
-13 -4 -16 -10z"/>
<path d="M5820 2240 c0 -30 4 -40 16 -40 11 0 14 5 10 16 -3 9 -6 27 -6 40 0
13 -4 24 -10 24 -5 0 -10 -18 -10 -40z"/>
<path d="M1140 2259 c0 -12 24 -16 63 -11 53 6 46 17 -13 17 -27 0 -50 -3 -50
-6z"/>
<path d="M2520 2254 c-36 -11 -38 -13 -11 -9 18 3 42 5 52 5 11 0 19 5 19 10
0 12 -3 12 -60 -6z"/>
<path d="M3275 2260 c-7 -12 2 -12 30 0 19 8 19 9 -2 9 -12 1 -25 -3 -28 -9z"/>
<path d="M1286 2245 c4 -8 10 -12 15 -9 11 6 2 24 -11 24 -5 0 -7 -7 -4 -15z"/>
<path d="M5420 2243 c-19 -2 -44 -8 -55 -13 -11 -4 -33 -11 -49 -15 -15 -3
-26 -8 -23 -11 8 -8 227 18 227 27 0 7 -39 20 -55 17 -5 -1 -26 -3 -45 -5z"/>
<path d="M2375 2231 c-16 -3 -25 -9 -20 -13 6 -3 24 0 40 7 33 15 27 16 -20 6z"/>
<path d="M5200 2140 c0 -5 10 -10 23 -10 18 0 19 2 7 10 -19 13 -30 13 -30 0z"/>
<path d="M2073 2123 c9 -2 23 -2 30 0 6 3 -1 5 -18 5 -16 0 -22 -2 -12 -5z"/>
<path d="M5253 1980 c-32 -13 -28 -21 10 -18 41 2 53 8 36 19 -17 10 -18 10
-46 -1z"/>
<path d="M5577 1984 c-8 -8 1 -24 14 -24 5 0 9 7 9 15 0 15 -12 20 -23 9z"/>
<path d="M5128 1903 c7 -3 16 -2 19 1 4 3 -2 6 -13 5 -11 0 -14 -3 -6 -6z"/>
<path d="M1520 1647 c0 -15 4 -27 10 -27 5 0 9 9 7 20 -5 31 -17 36 -17 7z"/>
<path d="M1688 1633 c-2 -18 -1 -34 3 -35 3 -2 9 -12 13 -24 6 -19 2 -22 -51
-27 -59 -6 -93 8 -93 40 0 7 -7 13 -16 13 -8 0 -12 -4 -9 -10 3 -5 8 -18 10
-27 2 -10 7 -28 11 -40 5 -19 0 -23 -36 -34 -39 -12 -41 -14 -21 -23 11 -5 21
-15 21 -23 0 -7 6 -13 14 -13 8 0 16 -7 20 -15 3 -10 19 -15 43 -15 36 1 37 2
19 15 -19 15 -19 15 5 41 20 21 29 24 59 19 19 -4 46 -13 61 -21 25 -12 27
-12 32 8 6 21 7 21 25 5 10 -9 22 -14 25 -10 11 10 8 51 -3 58 -5 3 -10 18
-10 32 0 20 -26 80 -48 113 -2 2 -18 5 -37 5 -30 1 -34 -1 -37 -32z m70 -26
c2 -10 -3 -17 -11 -17 -18 0 -39 24 -30 34 12 12 38 2 41 -17z m-103 -96 c10
-17 -11 -21 -31 -6 -18 14 -18 14 3 15 12 0 24 -4 28 -9z"/>
<path d="M720 1600 c0 -5 5 -10 10 -10 6 0 10 5 10 10 0 6 -4 10 -10 10 -5 0
-10 -4 -10 -10z"/>
<path d="M5178 1603 c7 -3 16 -2 19 1 4 3 -2 6 -13 5 -11 0 -14 -3 -6 -6z"/>
<path d="M1253 1583 c-14 -5 -17 -29 -5 -37 4 -2 15 2 25 9 13 10 15 15 5 22
-7 6 -19 8 -25 6z"/>
<path d="M1269 1491 c-2 -6 -47 -13 -106 -15 -103 -6 -190 -21 -208 -38 -6 -6
-3 -7 8 -2 10 3 91 8 180 9 184 4 216 6 237 20 12 7 7 11 -20 17 -19 4 -47 10
-61 13 -16 4 -28 2 -30 -4z"/>
<path d="M1425 1470 c3 -5 8 -10 11 -10 2 0 4 5 4 10 0 6 -5 10 -11 10 -5 0
-7 -4 -4 -10z"/>
<path d="M1080 1380 c-12 -8 -9 -10 13 -10 15 0 27 5 27 10 0 13 -20 13 -40 0z"/>
<path d="M1601 1374 c0 -11 3 -14 6 -6 3 7 2 16 -1 19 -3 4 -6 -2 -5 -13z"/>
<path d="M4992 1379 c3 -8 22 -14 48 -16 54 -4 42 15 -15 24 -29 5 -37 3 -33
-8z"/>
<path d="M2592 1363 c-22 -9 -2 -23 34 -23 38 0 46 15 12 24 -26 6 -28 6 -46
-1z"/>
<path d="M2525 1350 c3 -5 12 -7 20 -3 21 7 19 13 -6 13 -11 0 -18 -4 -14 -10z"/>
<path d="M4960 1341 c0 -11 39 -25 47 -18 3 3 2 10 -2 16 -8 13 -45 15 -45 2z"/>
<path d="M1928 1328 c-22 -6 -38 -16 -38 -25 0 -10 -6 -12 -21 -8 -15 5 -22 2
-26 -13 -3 -13 -18 -23 -46 -30 l-42 -10 43 -1 c23 0 42 3 42 7 0 5 20 9 45 9
41 1 115 34 115 52 0 9 -22 31 -29 30 -4 -1 -23 -6 -43 -11z"/>
<path d="M5094 1329 c-3 -6 -18 -8 -33 -5 -22 5 -23 5 -8 -5 14 -8 62 -8 105
0 1 1 2 6 2 11 0 14 -57 13 -66 -1z"/>
<path d="M2433 1305 c-16 -11 -34 -14 -62 -9 -44 7 -76 -9 -67 -33 4 -9 -4
-13 -29 -13 -23 0 -35 -5 -35 -14 0 -19 32 -26 58 -12 21 11 22 13 22 40 0 19
31 29 64 20 29 -7 37 -44 10 -44 -8 0 -13 -4 -9 -9 7 -12 210 -5 250 9 24 8
13 9 -53 6 -54 -2 -88 1 -95 9 -7 6 -21 16 -32 22 -17 10 -16 12 18 18 20 4
37 11 37 16 0 15 -54 10 -77 -6z"/>
<path d="M4960 1310 c0 -5 5 -10 11 -10 5 0 7 5 4 10 -3 6 -8 10 -11 10 -2 0
-4 -4 -4 -10z"/>
<path d="M4788 1293 c-16 -2 -28 -9 -28 -15 0 -11 80 -1 95 13 9 9 -15 10 -67
2z"/>
<path d="M2713 1263 c-24 -5 -30 -18 -13 -28 6 -4 17 -1 25 5 8 6 23 9 35 5
23 -7 28 10 4 19 -9 3 -19 5 -22 5 -4 -1 -17 -4 -29 -6z"/>
<path d="M1260 1240 c-23 -7 -23 -8 -3 -9 12 -1 25 4 28 9 3 6 5 10 3 9 -2 -1
-14 -5 -28 -9z"/>
<path d="M1356 1241 c-3 -4 34 -8 83 -7 49 0 87 4 84 9 -6 10 -161 9 -167 -2z"/>
<path d="M952 1227 c18 -18 88 -24 88 -7 0 6 -15 10 -34 10 -19 0 -43 3 -53 7
-17 6 -17 6 -1 -10z"/>
<path d="M1054 1224 c3 -9 6 -20 6 -25 0 -6 5 -7 10 -4 16 10 12 45 -6 45 -11
0 -14 -5 -10 -16z"/>
<path d="M1101 1228 c1 -28 15 -52 23 -40 4 7 5 16 1 22 -3 5 14 7 45 3 49 -6
70 7 34 21 -30 11 -104 7 -103 -6z"/>
<path d="M1718 1235 c-2 -2 -35 -5 -73 -6 -39 -1 -85 -8 -104 -15 -18 -8 -43
-14 -56 -14 -12 0 -25 -3 -29 -7 -8 -8 -13 -9 -64 -11 -21 -1 -31 -6 -26 -13
3 -6 18 -9 33 -6 36 8 55 -5 46 -32 -5 -17 -2 -21 14 -21 13 0 19 5 15 14 -4
9 7 15 35 20 23 3 41 10 41 15 0 5 43 19 95 31 52 12 97 25 100 30 5 8 -20 22
-27 15z"/>
<path d="M880 1201 c0 -16 -6 -21 -25 -21 -14 0 -25 -4 -25 -10 0 -12 90 -13
109 -1 11 7 9 10 -7 16 -12 3 -21 11 -19 18 1 6 -6 13 -15 15 -13 2 -18 -3
-18 -17z"/>
<path d="M1190 1194 c-25 -8 -59 -30 -76 -50 -17 -18 -41 -34 -53 -34 -12 0
-21 -6 -21 -15 0 -9 -10 -15 -22 -16 -21 -1 -21 -2 -3 -6 11 -3 30 -16 42 -29
22 -24 63 -33 63 -13 0 7 18 8 52 5 28 -4 60 -4 69 -1 17 6 16 8 -3 40 -11 19
-26 35 -34 35 -18 0 -18 24 0 39 7 6 30 17 51 24 22 8 41 19 43 25 5 17 -53
14 -108 -4z m-110 -114 c0 -5 -2 -10 -4 -10 -3 0 -8 5 -11 10 -3 6 -1 10 4 10
6 0 11 -4 11 -10z"/>
<path d="M2815 1180 c-3 -5 -1 -10 4 -10 6 0 11 5 11 10 0 6 -2 10 -4 10 -3 0
-8 -4 -11 -10z"/>
<path d="M2626 1137 c-15 -12 -35 -22 -44 -22 -9 0 -17 -7 -17 -15 0 -8 7 -13
15 -11 8 2 26 6 40 9 20 4 70 44 70 55 0 12 -43 1 -64 -16z"/>
<path d="M506 1142 c-8 -13 3 -42 15 -42 11 0 11 21 0 39 -5 8 -11 9 -15 3z"/>
<path d="M2437 1073 c-24 -23 8 -30 37 -8 19 14 19 15 -5 15 -14 0 -29 -3 -32
-7z"/>
<path d="M4845 1070 c-3 -5 1 -10 9 -10 9 0 16 5 16 10 0 6 -4 10 -9 10 -6 0
-13 -4 -16 -10z"/>
<path d="M2395 1040 c3 -5 8 -10 11 -10 2 0 4 5 4 10 0 6 -5 10 -11 10 -5 0
-7 -4 -4 -10z"/>
<path d="M2295 1020 c3 -5 10 -10 16 -10 5 0 9 5 9 10 0 6 -7 10 -16 10 -8 0
-12 -4 -9 -10z"/>
<path d="M4765 1000 c-3 -6 1 -7 9 -4 18 7 21 14 7 14 -6 0 -13 -4 -16 -10z"/>
<path d="M2442 980 c7 -11 19 -18 26 -15 8 3 18 5 23 5 5 0 9 5 9 11 0 7 -10
9 -25 7 -14 -3 -25 -1 -25 3 0 5 -5 9 -10 9 -6 0 -5 -8 2 -20z"/>
<path d="M3760 990 c0 -5 6 -10 14 -10 8 0 18 5 21 10 3 6 -3 10 -14 10 -12 0
-21 -4 -21 -10z"/>
<path d="M3485 980 c-3 -5 3 -10 14 -10 12 0 21 5 21 10 0 6 -6 10 -14 10 -8
0 -18 -4 -21 -10z"/>
<path d="M2400 965 c0 -8 7 -15 15 -15 8 0 15 7 15 15 0 8 -7 15 -15 15 -8 0
-15 -7 -15 -15z"/>
<path d="M4777 973 c-11 -11 -8 -31 6 -36 6 -2 -1 -3 -18 -1 -26 4 -27 3 -11
-9 18 -13 57 -14 93 -3 14 5 23 0 32 -16 7 -14 10 -16 6 -4 -4 13 -1 17 10 12
27 -10 16 2 -29 34 -45 30 -62 37 -52 21 3 -5 -1 -12 -10 -15 -12 -4 -15 -2
-10 9 5 15 -5 21 -17 8z m63 -23 c0 -5 -4 -10 -10 -10 -5 0 -10 5 -10 10 0 6
5 10 10 10 6 0 10 -4 10 -10z"/>
<path d="M3470 950 c-12 -8 -10 -10 8 -10 13 0 20 4 17 10 -7 12 -6 12 -25 0z"/>
<path d="M3360 935 c-30 -8 -99 -14 -152 -15 -104 0 -248 -18 -248 -30 0 -4
30 -5 68 -2 37 2 90 5 119 6 28 1 49 5 46 10 -4 5 20 7 55 4 33 -3 64 -2 69 3
5 5 22 9 38 10 50 2 85 10 85 20 0 11 -12 11 -80 -6z"/>
<path d="M4508 923 c7 -3 16 -2 19 1 4 3 -2 6 -13 5 -11 0 -14 -3 -6 -6z"/>
<path d="M5077 900 c-3 -12 -10 -19 -16 -15 -6 3 -11 2 -11 -2 0 -16 42 -35
53 -24 8 8 6 11 -6 11 -18 0 -24 16 -7 22 5 2 6 9 1 16 -6 10 -10 8 -14 -8z"/>
<path d="M4810 892 c0 -4 10 -13 23 -21 22 -14 22 -14 3 8 -20 22 -26 25 -26
13z"/>
<path d="M2860 880 l-25 -8 27 -1 c15 -1 30 4 33 9 7 11 0 11 -35 0z"/>
<path d="M3095 866 l-30 -13 26 -7 c18 -5 36 -1 60 13 l34 21 -30 0 c-16 -1
-43 -7 -60 -14z"/>
<path d="M4890 842 c0 -11 22 -32 32 -32 5 0 4 9 -2 20 -11 20 -30 28 -30 12z"/>
<path d="M4973 831 c-10 -17 -9 -19 16 -23 16 -2 36 -1 46 2 15 5 14 8 -8 23
-33 22 -39 21 -54 -2z"/>
<path d="M5085 751 c-54 -8 -51 -26 10 -71 42 -31 52 -35 63 -24 10 11 9 13
-9 11 -12 -1 -24 4 -26 13 -4 12 -3 12 5 1 8 -11 14 -11 33 -1 13 7 27 17 30
22 3 5 13 2 22 -6 17 -17 27 -20 27 -8 0 15 -73 56 -97 54 -14 -1 -21 2 -18 8
3 6 5 9 3 9 -2 -1 -21 -5 -43 -8z m75 -51 c0 -5 -4 -10 -10 -10 -5 0 -10 5
-10 10 0 6 5 10 10 10 6 0 10 -4 10 -10z"/>
<path d="M3556 733 c-35 -5 -68 -33 -40 -33 25 0 84 23 84 32 0 4 -3 7 -7 7
-5 -1 -21 -4 -37 -6z"/>
<path d="M674 716 c-16 -12 -14 -13 14 -12 33 1 42 10 18 19 -8 3 -22 0 -32
-7z"/>
<path d="M2834 711 c8 -8 22 -10 35 -6 32 10 25 20 -14 20 -29 0 -32 -2 -21
-14z"/>
<path d="M625 680 c4 -6 11 -8 16 -5 14 9 11 15 -7 15 -8 0 -12 -5 -9 -10z"/>
<path d="M680 665 c-8 -9 -9 -15 -2 -15 6 0 14 5 17 11 4 6 13 8 19 6 7 -3 19
-1 27 4 10 6 5 9 -17 9 -17 0 -37 -7 -44 -15z"/>
<path d="M598 653 c7 -3 16 -2 19 1 4 3 -2 6 -13 5 -11 0 -14 -3 -6 -6z"/>
<path d="M3075 646 c-27 -6 -55 -14 -62 -19 -6 -4 -42 -12 -80 -17 -37 -5 -90
-18 -118 -28 -27 -11 -64 -22 -81 -25 -17 -3 -45 -12 -62 -21 -17 -9 -38 -16
-47 -16 -19 0 -19 -14 1 -34 20 -20 30 -20 38 0 3 8 10 12 16 9 5 -3 22 0 37
8 16 8 72 23 126 32 53 9 97 20 97 24 0 4 37 13 83 20 84 12 237 60 237 74 0
11 -128 6 -185 -7z"/>
<path d="M5006 644 c-5 -14 -4 -15 9 -4 8 7 22 10 30 6 9 -3 13 -2 10 4 -10
16 -42 12 -49 -6z"/>
<path d="M3530 640 c-12 -8 -9 -10 13 -10 15 0 27 5 27 10 0 13 -20 13 -40 0z"/>
<path d="M5321 618 c16 -17 33 -28 36 -24 4 3 0 6 -8 6 -11 0 -11 2 1 10 13 8
12 10 -2 10 -10 0 -18 4 -18 9 0 5 -9 11 -20 14 -16 4 -13 -1 11 -25z"/>
<path d="M5045 600 c-16 -7 -17 -9 -3 -9 9 -1 20 4 23 9 7 11 7 11 -20 0z"/>
<path d="M5233 582 c10 -11 28 -22 40 -26 22 -5 22 -5 2 10 -11 9 -29 20 -40
26 -19 11 -20 10 -2 -10z"/>
<path d="M5300 541 c0 -5 11 -8 25 -8 14 0 25 3 25 8 0 5 -11 9 -25 9 -14 0
-25 -4 -25 -9z"/>
<path d="M972 99 c2 -7 10 -15 17 -17 8 -3 12 1 9 9 -2 7 -10 15 -17 17 -8 3
-12 -1 -9 -9z"/>
<path d="M3020 65 c0 -8 5 -15 10 -15 6 0 10 7 10 15 0 8 -4 15 -10 15 -5 0
-10 -7 -10 -15z"/>
<path d="M3586 57 c-4 -17 -8 -18 -20 -8 -13 11 -18 10 -31 -2 -8 -9 -15 -20
-15 -25 0 -6 -9 -8 -20 -5 -11 3 -20 0 -20 -6 0 -7 29 -11 86 -11 54 0 83 4
79 10 -3 6 -15 10 -26 10 -10 0 -19 5 -19 10 0 6 7 10 15 10 22 0 18 27 -4 33
-13 3 -21 -2 -25 -16z"/>
<path d="M986 57 c3 -10 9 -15 12 -12 3 3 0 11 -7 18 -10 9 -11 8 -5 -6z"/>
<path d="M1426 27 c3 -10 9 -15 12 -12 3 3 0 11 -7 18 -10 9 -11 8 -5 -6z"/>
</g>
</svg>
